%FSTAX23Y23*%
%MOIN*%
%SFA1B1*%

%IPPOS*%
%ADD13C,0.070866*%
%ADD14C,0.062992*%
%ADD15C,0.059055*%
%ADD16R,0.059055X0.059055*%
%LNpcb1-1*%
%LPD*%
G54D13*
X01787Y-01236D03*
X01669D03*
X01728Y-01137D03*
X0161D03*
X01728Y-01019D03*
X0161D03*
X01787Y-00921D03*
X01669D03*
X00842Y-01236D03*
X0096D03*
X01078D03*
X01196D03*
X01314D03*
X01433D03*
X01551D03*
X00901Y-01137D03*
X01019D03*
X01137D03*
X01255D03*
X01374D03*
X01492D03*
Y-01019D03*
X01374D03*
X01255D03*
X01137D03*
X01019D03*
X00901D03*
X01551Y-00921D03*
X01433D03*
X01314D03*
X01196D03*
X01078D03*
X0096D03*
X00842D03*
X02409Y-00822D03*
Y-01019D03*
G54D14*
X0227Y-00397D03*
X0217D03*
X0207D03*
X0197D03*
X0187D03*
X0177D03*
X0167D03*
X0157D03*
X0147D03*
X0137D03*
X0127D03*
X0117D03*
X0107D03*
X0097D03*
X0087D03*
X0077D03*
X0067D03*
X0057D03*
X0047D03*
X0037D03*
X0227Y-00297D03*
X0217D03*
X0207D03*
X0197D03*
X0187D03*
X0177D03*
X0167D03*
X0157D03*
X0147D03*
X0137D03*
X0127D03*
X0117D03*
X0107D03*
X0097D03*
X0087D03*
X0077D03*
X0067D03*
X0057D03*
X0047D03*
X0037D03*
G54D15*
X01635Y-00082D03*
X01535D03*
G54D16*
X01435Y-00082D03*
M02*