%FSTAX23Y23*%
%MOIN*%
%SFA1B1*%

%IPPOS*%
%ADD11C,0.010000*%
%LNpcb1-1*%
%LPD*%
G54D11*
X02337Y-01379D02*
X02347Y-01369D01*
X02367*
X02377Y-01379*
Y-01389*
X02367Y-01399*
X02347*
X02337Y-01409*
Y-01419*
X02347Y-01429*
X02367*
X02377Y-01419*
X02317Y-01449D02*
Y-01389D01*
X02287*
X02277Y-01399*
Y-01419*
X02287Y-01429*
X02317*
X02228D02*
X02247D01*
X02257Y-01419*
Y-01399*
X02247Y-01389*
X02228*
X02218Y-01399*
Y-01409*
X02257*
X02168Y-01429D02*
X02188D01*
X02198Y-01419*
Y-01399*
X02188Y-01389*
X02168*
X02158Y-01399*
Y-01409*
X02198*
X02098Y-01369D02*
Y-01429D01*
X02128*
X02138Y-01419*
Y-01399*
X02128Y-01389*
X02098*
X02078D02*
Y-01419D01*
X02068Y-01429*
X02038*
Y-01389*
X02018Y-01429D02*
X01998D01*
X02008*
Y-01389*
X02018*
X01968Y-01429D02*
Y-01389D01*
X01938*
X01928Y-01399*
Y-01429*
X01898D02*
X01878D01*
X01868Y-01419*
Y-01399*
X01878Y-01389*
X01898*
X01908Y-01399*
Y-01419*
X01898Y-01429*
X01778Y-01379D02*
Y-01389D01*
X01788*
X01768*
X01778*
Y-01419*
X01768Y-01429*
X01728D02*
X01708D01*
X01698Y-01419*
Y-01399*
X01708Y-01389*
X01728*
X01738Y-01399*
Y-01419*
X01728Y-01429*
X01578Y-01379D02*
X01588Y-01369D01*
X01608*
X01618Y-01379*
Y-01389*
X01608Y-01399*
X01588*
X01578Y-01409*
Y-01419*
X01588Y-01429*
X01608*
X01618Y-01419*
X01558Y-01389D02*
Y-01419D01*
X01548Y-01429*
X01518*
Y-01389*
X01498Y-01449D02*
Y-01389D01*
X01468*
X01458Y-01399*
Y-01419*
X01468Y-01429*
X01498*
X01408D02*
X01428D01*
X01438Y-01419*
Y-01399*
X01428Y-01389*
X01408*
X01398Y-01399*
Y-01409*
X01438*
X01378Y-01389D02*
Y-01429D01*
Y-01409*
X01368Y-01399*
X01358Y-01389*
X01348*
X01318Y-01429D02*
X01288D01*
X01278Y-01419*
X01288Y-01409*
X01308*
X01318Y-01399*
X01308Y-01389*
X01278*
X01228Y-01429D02*
X01248D01*
X01258Y-01419*
Y-01399*
X01248Y-01389*
X01228*
X01218Y-01399*
Y-01409*
X01258*
X01188Y-01389D02*
X01168D01*
X01158Y-01399*
Y-01429*
X01188*
X01198Y-01419*
X01188Y-01409*
X01158*
X01138Y-01429D02*
X01118D01*
X01128*
Y-01369*
X01138*
X01028D02*
Y-01429D01*
X00998*
X00988Y-01419*
Y-01409*
Y-01399*
X00998Y-01389*
X01028*
X00968D02*
Y-01419D01*
X00958Y-01429*
X00928*
Y-01439*
X00938Y-01449*
X00948*
X00928Y-01429D02*
Y-01389D01*
X00848Y-01429D02*
Y-01369D01*
X00828Y-01389*
X00808Y-01369*
Y-01429*
X00778D02*
X00758D01*
X00748Y-01419*
Y-01399*
X00758Y-01389*
X00778*
X00788Y-01399*
Y-01419*
X00778Y-01429*
X00718Y-01379D02*
Y-01389D01*
X00728*
X00708*
X00718*
Y-01419*
X00708Y-01429*
X00668D02*
X00648D01*
X00638Y-01419*
Y-01399*
X00648Y-01389*
X00668*
X00678Y-01399*
Y-01419*
X00668Y-01429*
X00608Y-01379D02*
Y-01389D01*
X00618*
X00598*
X00608*
Y-01419*
X00598Y-01429*
X00568Y-01389D02*
Y-01429D01*
Y-01409*
X00558Y-01399*
X00548Y-01389*
X00538*
X00498Y-01429D02*
X00478D01*
X00468Y-01419*
Y-01399*
X00478Y-01389*
X00498*
X00508Y-01399*
Y-01419*
X00498Y-01429*
X00438D02*
X00418D01*
X00408Y-01419*
Y-01399*
X00418Y-01389*
X00438*
X00448Y-01399*
Y-01419*
X00438Y-01429*
X00388D02*
Y-01389D01*
X00358*
X00348Y-01399*
Y-01429*
X00328D02*
X00308D01*
X00318*
Y-01389*
X00328*
X00278Y-01429D02*
Y-01369D01*
Y-01409D02*
X00248Y-01389D01*
X00278Y-01409D02*
X00248Y-01429D01*
M02*