%FSTAX23Y23*%
%MOIN*%
%SFA1B1*%

%IPPOS*%
%ADD10C,0.039370*%
%ADD11C,0.010000*%
%ADD12R,0.062992X0.044819*%
%ADD13C,0.070866*%
%ADD14C,0.062992*%
%ADD15C,0.059055*%
%ADD16R,0.059055X0.059055*%
%LNpcb1-1*%
%LPD*%
G36*
X0257Y-00016D02*
X02582Y-00019D01*
X02592Y-00025*
X02601Y-00032*
X02602Y-00033*
X0261Y-00041*
X0261Y-00041*
X02617Y-00049*
X02621Y-0006*
X02622Y-0007*
X02622Y-0007*
Y-01389*
Y-01429*
X02622Y-01429*
X02621Y-01439*
X02617Y-0145*
X0261Y-01458*
X0261Y-01458*
X02609Y-01459*
X02598Y-01468*
X02585Y-01475*
X02571Y-01479*
X02557Y-0148*
X02556Y-0148*
X0007*
X0007Y-0148*
X0006Y-01479*
X00049Y-01475*
X00041Y-01468*
X00041Y-01468*
X00033Y-0146*
X00032Y-0146*
X00025Y-01451*
X00019Y-0144*
X00016Y-01429*
X00015Y-01417*
X00015Y-01417*
Y-00078*
X00015Y-00078*
X00016Y-00066*
X00019Y-00055*
X00025Y-00044*
X00032Y-00035*
X00033Y-00035*
X00035Y-00033*
X00035Y-00032*
X00044Y-00025*
X00055Y-00019*
X00066Y-00016*
X00078Y-00015*
X00078Y-00015*
X02559*
X02559Y-00015*
X0257Y-00016*
G37*
%LNpcb1-2*%
%LPC*%
G36*
X01728Y-00973D02*
X01716Y-00975D01*
X01705Y-0098*
X01695Y-00987*
X01688Y-00996*
X01684Y-01007*
X01682Y-01019*
X01684Y-01031*
X01688Y-01042*
X01695Y-01052*
X01705Y-01059*
X01716Y-01063*
X01728Y-01065*
X0174Y-01063*
X01751Y-01059*
X0176Y-01052*
X01768Y-01042*
X01772Y-01031*
X01774Y-01019*
X01772Y-01007*
X01768Y-00996*
X0176Y-00987*
X01751Y-0098*
X0174Y-00975*
X01728Y-00973*
G37*
G36*
X02409D02*
X02397Y-00975D01*
X02386Y-0098*
X02377Y-00987*
X02369Y-00996*
X02365Y-01007*
X02363Y-01019*
X02365Y-01031*
X02369Y-01042*
X02377Y-01052*
X02386Y-01059*
X02397Y-01063*
X02409Y-01065*
X02421Y-01063*
X02432Y-01059*
X02441Y-01052*
X02449Y-01042*
X02453Y-01031*
X02455Y-01019*
X02453Y-01007*
X02449Y-00996*
X02441Y-00987*
X02432Y-0098*
X02421Y-00975*
X02409Y-00973*
G37*
G36*
X01501Y-01093D02*
Y-01127D01*
X01536*
X01536Y-01125*
X01531Y-01114*
X01524Y-01105*
X01515Y-01098*
X01503Y-01093*
X01501Y-01093*
G37*
G36*
X01536Y-01147D02*
X01501D01*
Y-01182*
X01503Y-01182*
X01515Y-01177*
X01524Y-0117*
X01531Y-0116*
X01536Y-01149*
X01536Y-01147*
G37*
G36*
X01482Y-01093D02*
X0148Y-01093D01*
X01469Y-01098*
X01459Y-01105*
X01452Y-01114*
X01447Y-01125*
X01447Y-01127*
X01482*
Y-01093*
G37*
G36*
X0254Y-00981D02*
X02539Y-00981D01*
X02538Y-00981*
X0253Y-00982*
X02529Y-00983*
X02528Y-00983*
X02521Y-00986*
X0252Y-00986*
X02519Y-00987*
X02513Y-00991*
X02512Y-00992*
X02511Y-00993*
X02507Y-00999*
X02506Y-01*
X02505Y-01001*
X02503Y-01008*
X02502Y-01009*
X02502Y-01011*
X02501Y-01018*
X02501Y-01019*
X02501Y-01019*
X02501Y-0102*
X02501Y-01021*
X02502Y-01028*
X02502Y-01029*
X02503Y-0103*
X02505Y-01037*
X02506Y-01038*
X02507Y-01039*
X02511Y-01045*
X02512Y-01046*
X02513Y-01047*
X02519Y-01051*
X0252Y-01052*
X02521Y-01053*
X02528Y-01055*
X02529Y-01056*
X0253Y-01056*
X02538Y-01057*
X02539Y-01057*
X0254Y-01057*
X02547Y-01056*
X02549Y-01056*
X0255Y-01055*
X02557Y-01053*
X02558Y-01052*
X02559Y-01051*
X02565Y-01047*
X02566Y-01046*
X02567Y-01045*
X02571Y-01039*
X02572Y-01038*
X02572Y-01037*
X02575Y-0103*
X02575Y-01029*
X02576Y-01028*
X02577Y-01021*
X02577Y-0102*
X02577Y-01019*
X02577Y-01019*
X02577Y-01018*
X02576Y-01011*
X02575Y-01009*
X02575Y-01008*
X02572Y-01001*
X02572Y-01*
X02571Y-00999*
X02567Y-00993*
X02566Y-00992*
X02565Y-00991*
X02559Y-00987*
X02558Y-00986*
X02557Y-00986*
X0255Y-00983*
X02549Y-00983*
X02547Y-00982*
X0254Y-00981*
G37*
G36*
X01314Y-0119D02*
X01303Y-01191D01*
X01292Y-01196*
X01282Y-01203*
X01275Y-01213*
X0127Y-01224*
X01269Y-01236*
X0127Y-01248*
X01275Y-01259*
X01282Y-01268*
X01292Y-01275*
X01303Y-0128*
X01314Y-01282*
X01326Y-0128*
X01337Y-01275*
X01347Y-01268*
X01354Y-01259*
X01359Y-01248*
X0136Y-01236*
X01359Y-01224*
X01354Y-01213*
X01347Y-01203*
X01337Y-01196*
X01326Y-01191*
X01314Y-0119*
G37*
G36*
X01196D02*
X01184Y-01191D01*
X01173Y-01196*
X01164Y-01203*
X01157Y-01213*
X01152Y-01224*
X01151Y-01236*
X01152Y-01248*
X01157Y-01259*
X01164Y-01268*
X01173Y-01275*
X01184Y-0128*
X01196Y-01282*
X01208Y-0128*
X01219Y-01275*
X01229Y-01268*
X01236Y-01259*
X01241Y-01248*
X01242Y-01236*
X01241Y-01224*
X01236Y-01213*
X01229Y-01203*
X01219Y-01196*
X01208Y-01191*
X01196Y-0119*
G37*
G36*
X01787Y-00875D02*
X01775Y-00876D01*
X01764Y-00881*
X01755Y-00888*
X01747Y-00898*
X01743Y-00909*
X01741Y-00921*
X01743Y-00933*
X01747Y-00944*
X01755Y-00953*
X01764Y-0096*
X01775Y-00965*
X01787Y-00967*
X01799Y-00965*
X0181Y-0096*
X01819Y-00953*
X01827Y-00944*
X01831Y-00933*
X01833Y-00921*
X01831Y-00909*
X01827Y-00898*
X01819Y-00888*
X0181Y-00881*
X01799Y-00876*
X01787Y-00875*
G37*
G36*
X01551D02*
X01539Y-00876D01*
X01528Y-00881*
X01518Y-00888*
X01511Y-00898*
X01506Y-00909*
X01505Y-00921*
X01506Y-00933*
X01511Y-00944*
X01518Y-00953*
X01528Y-0096*
X01539Y-00965*
X01551Y-00967*
X01563Y-00965*
X01574Y-0096*
X01583Y-00953*
X0159Y-00944*
X01595Y-00933*
X01597Y-00921*
X01595Y-00909*
X0159Y-00898*
X01583Y-00888*
X01574Y-00881*
X01563Y-00876*
X01551Y-00875*
G37*
G36*
X01669D02*
X01657Y-00876D01*
X01646Y-00881*
X01636Y-00888*
X01629Y-00898*
X01625Y-00909*
X01623Y-00921*
X01625Y-00933*
X01629Y-00944*
X01636Y-00953*
X01646Y-0096*
X01657Y-00965*
X01669Y-00967*
X01681Y-00965*
X01692Y-0096*
X01701Y-00953*
X01708Y-00944*
X01713Y-00933*
X01715Y-00921*
X01713Y-00909*
X01708Y-00898*
X01701Y-00888*
X01692Y-00881*
X01681Y-00876*
X01669Y-00875*
G37*
G36*
X01423Y-01191D02*
X01421Y-01191D01*
X0141Y-01196*
X014Y-01203*
X01393Y-01213*
X01388Y-01224*
X01388Y-01226*
X01423*
Y-01191*
G37*
G36*
X01442D02*
Y-01226D01*
X01477*
X01477Y-01224*
X01472Y-01213*
X01465Y-01203*
X01455Y-01196*
X01444Y-01191*
X01442Y-01191*
G37*
G36*
X01541Y-01246D02*
X01506D01*
X01506Y-01248*
X01511Y-01259*
X01518Y-01268*
X01528Y-01275*
X01539Y-0128*
X01541Y-0128*
Y-01246*
G37*
G36*
X01423D02*
X01388D01*
X01388Y-01248*
X01393Y-01259*
X014Y-01268*
X0141Y-01275*
X01421Y-0128*
X01423Y-0128*
Y-01246*
G37*
G36*
X01477D02*
X01442D01*
Y-0128*
X01444Y-0128*
X01455Y-01275*
X01465Y-01268*
X01472Y-01259*
X01477Y-01248*
X01477Y-01246*
G37*
G36*
X01541Y-01191D02*
X01539Y-01191D01*
X01528Y-01196*
X01518Y-01203*
X01511Y-01213*
X01506Y-01224*
X01506Y-01226*
X01541*
Y-01191*
G37*
G36*
X01418Y-01147D02*
X01383D01*
Y-01182*
X01385Y-01182*
X01396Y-01177*
X01406Y-0117*
X01413Y-0116*
X01418Y-01149*
X01418Y-01147*
G37*
G36*
X01482D02*
X01447D01*
X01447Y-01149*
X01452Y-0116*
X01459Y-0117*
X01469Y-01177*
X0148Y-01182*
X01482Y-01182*
Y-01147*
G37*
G36*
X01364D02*
X01329D01*
X01329Y-01149*
X01334Y-0116*
X01341Y-0117*
X01351Y-01177*
X01362Y-01182*
X01364Y-01182*
Y-01147*
G37*
G36*
X01019Y-01091D02*
X01007Y-01093D01*
X00996Y-01098*
X00987Y-01105*
X0098Y-01114*
X00975Y-01125*
X00973Y-01137*
X00975Y-01149*
X0098Y-0116*
X00987Y-0117*
X00996Y-01177*
X01007Y-01182*
X01019Y-01183*
X01031Y-01182*
X01042Y-01177*
X01052Y-0117*
X01059Y-0116*
X01063Y-01149*
X01065Y-01137*
X01063Y-01125*
X01059Y-01114*
X01052Y-01105*
X01042Y-01098*
X01031Y-01093*
X01019Y-01091*
G37*
G36*
X01137D02*
X01125Y-01093D01*
X01114Y-01098*
X01105Y-01105*
X01098Y-01114*
X01093Y-01125*
X01091Y-01137*
X01093Y-01149*
X01098Y-0116*
X01105Y-0117*
X01114Y-01177*
X01125Y-01182*
X01137Y-01183*
X01149Y-01182*
X0116Y-01177*
X0117Y-0117*
X01177Y-0116*
X01182Y-01149*
X01183Y-01137*
X01182Y-01125*
X01177Y-01114*
X0117Y-01105*
X0116Y-01098*
X01149Y-01093*
X01137Y-01091*
G37*
G36*
X02399Y-00832D02*
X02364D01*
X02365Y-00834*
X02369Y-00845*
X02377Y-00855*
X02386Y-00862*
X02397Y-00867*
X02399Y-00867*
Y-00832*
G37*
G36*
X0187Y-00256D02*
X01859Y-00257D01*
X01849Y-00261*
X0184Y-00268*
X01833Y-00277*
X01829Y-00287*
X01828Y-00297*
X01829Y-00308*
X01833Y-00318*
X0184Y-00327*
X01849Y-00334*
X01859Y-00338*
X0187Y-00339*
X0188Y-00338*
X01891Y-00334*
X01899Y-00327*
X01906Y-00318*
X0191Y-00308*
X01911Y-00297*
X0191Y-00287*
X01906Y-00277*
X01899Y-00268*
X01891Y-00261*
X0188Y-00257*
X0187Y-00256*
G37*
G36*
X0197D02*
X01959Y-00257D01*
X01949Y-00261*
X0194Y-00268*
X01933Y-00277*
X01929Y-00287*
X01928Y-00297*
X01929Y-00308*
X01933Y-00318*
X0194Y-00327*
X01949Y-00334*
X01959Y-00338*
X0197Y-00339*
X0198Y-00338*
X01991Y-00334*
X01999Y-00327*
X02006Y-00318*
X0201Y-00308*
X02011Y-00297*
X0201Y-00287*
X02006Y-00277*
X01999Y-00268*
X01991Y-00261*
X0198Y-00257*
X0197Y-00256*
G37*
G36*
X0177D02*
X01759Y-00257D01*
X01749Y-00261*
X0174Y-00268*
X01733Y-00277*
X01729Y-00287*
X01728Y-00297*
X01729Y-00308*
X01733Y-00318*
X0174Y-00327*
X01749Y-00334*
X01759Y-00338*
X0177Y-00339*
X0178Y-00338*
X01791Y-00334*
X01799Y-00327*
X01806Y-00318*
X0181Y-00308*
X01811Y-00297*
X0181Y-00287*
X01806Y-00277*
X01799Y-00268*
X01791Y-00261*
X0178Y-00257*
X0177Y-00256*
G37*
G36*
X01279Y-00357D02*
Y-00388D01*
X0131*
X0131Y-00387*
X01306Y-00377*
X01299Y-00368*
X01291Y-00361*
X0128Y-00357*
X01279Y-00357*
G37*
G36*
X01479D02*
Y-00388D01*
X0151*
X0151Y-00387*
X01506Y-00377*
X01499Y-00368*
X01491Y-00361*
X0148Y-00357*
X01479Y-00357*
G37*
G36*
X0217Y-00256D02*
X02159Y-00257D01*
X02149Y-00261*
X0214Y-00268*
X02133Y-00277*
X02129Y-00287*
X02128Y-00297*
X02129Y-00308*
X02133Y-00318*
X0214Y-00327*
X02149Y-00334*
X02159Y-00338*
X0217Y-00339*
X0218Y-00338*
X02191Y-00334*
X02199Y-00327*
X02206Y-00318*
X0221Y-00308*
X02211Y-00297*
X0221Y-00287*
X02206Y-00277*
X02199Y-00268*
X02191Y-00261*
X0218Y-00257*
X0217Y-00256*
G37*
G36*
X02079Y-00257D02*
Y-00288D01*
X0211*
X0211Y-00287*
X02106Y-00277*
X02099Y-00268*
X02091Y-00261*
X0208Y-00257*
X02079Y-00257*
G37*
G36*
X01635Y-00042D02*
X01625Y-00044D01*
X01615Y-00048*
X01607Y-00054*
X016Y-00062*
X01596Y-00072*
X01595Y-00082*
X01596Y-00092*
X016Y-00102*
X01606Y-0011*
Y-00269*
X01601Y-00271*
X01599Y-00268*
X01591Y-00261*
X0158Y-00257*
X0157Y-00256*
X01559Y-00257*
X01549Y-00261*
X0154Y-00268*
X01533Y-00277*
X01529Y-00287*
X01528Y-00297*
X01529Y-00308*
X01533Y-00318*
X0154Y-00327*
Y-00368*
X01533Y-00377*
X01529Y-00387*
X01528Y-00397*
X01529Y-00408*
X01533Y-00418*
X0154Y-00427*
Y-00467*
X01541Y-00475*
X01544Y-00482*
X01548Y-00488*
X01907Y-00847*
Y-01003*
X01814Y-01096*
X01746*
X0174Y-01093*
X01728Y-01091*
X01716Y-01093*
X01705Y-01098*
X01695Y-01105*
X01693Y-01108*
X01688Y-01106*
Y-01106*
X01687Y-011*
X01684Y-01095*
X01656Y-01067*
X01651Y-01064*
X01645Y-01063*
X01635*
X01634Y-01058*
X01642Y-01052*
X01649Y-01042*
X01654Y-01031*
X01656Y-01019*
X01654Y-01007*
X01649Y-00996*
X01642Y-00987*
X01633Y-0098*
X01622Y-00975*
X0161Y-00973*
X01598Y-00975*
X01587Y-0098*
X01577Y-00987*
X0157Y-00996*
X01565Y-01007*
X01564Y-01019*
X01565Y-01031*
X0157Y-01042*
X01577Y-01052*
X01586Y-01058*
X01584Y-01063*
X01557*
X01533Y-01039*
X01536Y-01031*
X01537Y-01019*
X01536Y-01007*
X01531Y-00996*
X01524Y-00987*
X01515Y-0098*
X01503Y-00975*
X01492Y-00973*
X0148Y-00975*
X01469Y-0098*
X01459Y-00987*
X01455Y-00992*
X01455Y-00992*
X01449Y-00992*
X01447Y-00989*
X0143Y-00971*
X01432Y-00966*
X01433Y-00967*
X01444Y-00965*
X01455Y-0096*
X01465Y-00953*
X01472Y-00944*
X01477Y-00933*
X01478Y-00921*
X01477Y-00909*
X01472Y-00898*
X01465Y-00888*
X01455Y-00881*
X01444Y-00876*
X01433Y-00875*
X01421Y-00876*
X0141Y-00881*
X014Y-00888*
X01398Y-00892*
X01393Y-0089*
Y-00514*
X01432Y-00475*
X01435Y-0047*
X01436Y-00464*
Y-00429*
X01441Y-00428*
X01449Y-00434*
X01459Y-00438*
X0146Y-00438*
Y-00397*
Y-00357*
X01459Y-00357*
X01449Y-00361*
X01441Y-00367*
X01436Y-00365*
Y-00353*
X01453Y-00336*
X01459Y-00338*
X0147Y-00339*
X0148Y-00338*
X01491Y-00334*
X01499Y-00327*
X01506Y-00318*
X0151Y-00308*
X01511Y-00297*
X0151Y-00287*
X01506Y-00277*
X01499Y-00268*
X01491Y-00261*
X0148Y-00257*
X0147Y-00256*
X01459Y-00257*
X01449Y-00261*
X0144Y-00268*
X01433Y-00277*
X01429Y-00287*
X01428Y-00297*
X01429Y-00308*
X01431Y-00314*
X0141Y-00335*
X01407Y-0034*
X01405Y-00346*
Y-00368*
X01401Y-0037*
X01399Y-00368*
X01391Y-00361*
X0138Y-00357*
X0137Y-00356*
X01359Y-00357*
X01353Y-00359*
X01334Y-0034*
Y-00327*
X01338Y-00325*
X0134Y-00327*
X01349Y-00334*
X01359Y-00338*
X0137Y-00339*
X0138Y-00338*
X01391Y-00334*
X01399Y-00327*
X01406Y-00318*
X0141Y-00308*
X01411Y-00297*
X0141Y-00287*
X01406Y-00277*
X01399Y-00268*
X01391Y-00261*
X0138Y-00257*
X0137Y-00256*
X01359Y-00257*
X01349Y-00261*
X0134Y-00268*
X01338Y-0027*
X01334Y-00268*
Y-00226*
X01364Y-00196*
X01437*
X01442Y-00195*
X01447Y-00191*
X0152Y-00119*
X01525Y-00121*
X01535Y-00122*
X01545Y-00121*
X01555Y-00117*
X01563Y-0011*
X01569Y-00102*
X01573Y-00092*
X01575Y-00082*
X01573Y-00072*
X01569Y-00062*
X01563Y-00054*
X01555Y-00048*
X01545Y-00044*
X01535Y-00042*
X01525Y-00044*
X01515Y-00048*
X01507Y-00054*
X015Y-00062*
X01496Y-00072*
X01495Y-00082*
X01496Y-00092*
X01498Y-00097*
X01479Y-00117*
X01474Y-00114*
X01475Y-00112*
Y-00053*
X01474Y-00049*
X01472Y-00045*
X01468Y-00043*
X01464Y-00042*
X01405*
X01402Y-00043*
X01398Y-00045*
X01396Y-00049*
X01395Y-00053*
Y-00112*
X01396Y-00116*
X01398Y-00119*
X01402Y-00121*
X01405Y-00122*
X01464*
X01467Y-00121*
X0147Y-00126*
X0143Y-00165*
X01358*
X01352Y-00166*
X01347Y-0017*
X01308Y-00209*
X01304Y-00214*
X01303Y-0022*
Y-00265*
X01298Y-00267*
X01291Y-00261*
X0128Y-00257*
X0127Y-00256*
X01259Y-00257*
X01249Y-00261*
X0124Y-00268*
X01233Y-00277*
X01229Y-00287*
X01228Y-00297*
X01229Y-00308*
X01233Y-00318*
X0124Y-00327*
X01249Y-00334*
X01259Y-00338*
X0127Y-00339*
X0128Y-00338*
X01291Y-00334*
X01298Y-00328*
X01303Y-00329*
Y-00346*
X01304Y-00352*
X01308Y-00357*
X01331Y-00381*
X01329Y-00387*
X01328Y-00397*
X01329Y-00408*
X01333Y-00418*
X0134Y-00427*
X01349Y-00434*
X01359Y-00438*
X0137Y-00439*
X0138Y-00438*
X01391Y-00434*
X01399Y-00427*
X01401Y-00425*
X01405Y-00427*
Y-00458*
X01367Y-00497*
X01363Y-00502*
X01362Y-00507*
Y-00904*
X01357Y-00905*
X01354Y-00898*
X01347Y-00888*
X01337Y-00881*
X01326Y-00876*
X01314Y-00875*
X01303Y-00876*
X01292Y-00881*
X01282Y-00888*
X01276Y-00897*
X01271Y-00895*
Y-00885*
X0127Y-00879*
X01266Y-00875*
X01231Y-0084*
Y-00424*
X01236Y-00422*
X0124Y-00427*
X01249Y-00434*
X01259Y-00438*
X0126Y-00438*
Y-00397*
Y-00357*
X01259Y-00357*
X01249Y-00361*
X0124Y-00368*
X01236Y-00373*
X01231Y-00371*
Y-00344*
X0123Y-00338*
X01227Y-00333*
X01208Y-00314*
X0121Y-00308*
X01211Y-00297*
X0121Y-00287*
X01206Y-00277*
X01199Y-00268*
X01191Y-00261*
X0118Y-00257*
X0117Y-00256*
X01159Y-00257*
X01149Y-00261*
X0114Y-00268*
X01133Y-00277*
X01129Y-00287*
X01128Y-00297*
X01129Y-00308*
X01133Y-00318*
X0114Y-00327*
X01149Y-00334*
X01159Y-00338*
X0117Y-00339*
X0118Y-00338*
X01186Y-00336*
X01192Y-00341*
X0119Y-00346*
X01137*
X01133Y-00347*
X0113Y-00349*
X01128Y-00352*
X01125Y-00353*
X01123Y-00353*
X01109Y-00339*
X01104Y-00336*
X01098Y-00335*
X01098*
X01096Y-0033*
X01099Y-00327*
X01106Y-00318*
X0111Y-00308*
X01111Y-00297*
X0111Y-00287*
X01106Y-00277*
X011Y-00268*
Y-00243*
X01099Y-00235*
X01097Y-00231*
X01096Y-00228*
X01091Y-00222*
X00966Y-00096*
X00959Y-00092*
X00952Y-00089*
X00944Y-00088*
X00314*
X00307Y-00089*
X00302Y-0009*
X00299Y-00092*
X00293Y-00096*
X00136Y-00254*
X00131Y-0026*
X00128Y-00267*
X00127Y-00275*
Y-00866*
X00128Y-00873*
X00131Y-00881*
X00136Y-00887*
X00687Y-01438*
X00693Y-01443*
X007Y-01446*
X00708Y-01447*
X00984*
X00992Y-01446*
X00999Y-01443*
X01005Y-01438*
X01099Y-01344*
X01104Y-01337*
X01107Y-0133*
X01108Y-01322*
Y-0127*
X01111Y-01268*
X01118Y-01259*
X01123Y-01248*
X01124Y-01236*
X01123Y-01224*
X01118Y-01213*
X01111Y-01203*
X01101Y-01196*
X0109Y-01191*
X01078Y-0119*
X01066Y-01191*
X01055Y-01196*
X01046Y-01203*
X01039Y-01213*
X01034Y-01224*
X01032Y-01236*
X01034Y-01248*
X01039Y-01259*
X01046Y-01268*
X01048Y-0127*
Y-0131*
X00971Y-01387*
X00721*
X00187Y-00853*
Y-00287*
X00327Y-00148*
X00932*
X0104Y-00255*
Y-00268*
X01033Y-00277*
X01029Y-00287*
X01028Y-00297*
X01029Y-00308*
X01033Y-00318*
X0104Y-00327*
X01043Y-0033*
X01042Y-00335*
X00998*
X00996Y-0033*
X00999Y-00327*
X01006Y-00318*
X0101Y-00308*
X01011Y-00297*
X0101Y-00287*
X01006Y-00277*
X01Y-00268*
Y-00261*
X00999Y-00253*
X00997Y-00249*
X00996Y-00246*
X00991Y-0024*
X00926Y-00175*
X0092Y-0017*
X00913Y-00167*
X00905Y-00166*
X00354*
X00346Y-00167*
X00339Y-0017*
X00333Y-00175*
X00215Y-00293*
X0021Y-00299*
X00207Y-00307*
X00206Y-00314*
Y-00826*
X00207Y-00834*
X0021Y-00841*
X00215Y-00847*
X00726Y-01359*
X00733Y-01364*
X0074Y-01367*
X00748Y-01368*
X00866*
X00873Y-01367*
X00881Y-01364*
X00887Y-01359*
X00965Y-01281*
X00972Y-0128*
X00983Y-01275*
X00993Y-01268*
X01Y-01259*
X01004Y-01248*
X01006Y-01236*
X01004Y-01224*
X01Y-01213*
X00993Y-01203*
X00983Y-01196*
X00972Y-01191*
X0096Y-0119*
X00948Y-01191*
X00937Y-01196*
X00928Y-01203*
X0092Y-01213*
X00916Y-01224*
X00914Y-01236*
X00916Y-01246*
X00853Y-01308*
X0076*
X00266Y-00814*
Y-00327*
X00366Y-00226*
X00893*
X00937Y-00271*
X00933Y-00277*
X00929Y-00287*
X00928Y-00297*
X00929Y-00308*
X00933Y-00318*
X0094Y-00327*
X00943Y-0033*
X00942Y-00335*
X00928*
X00908Y-00314*
X0091Y-00308*
X00911Y-00297*
X0091Y-00287*
X00906Y-00277*
X00899Y-00268*
X00891Y-00261*
X0088Y-00257*
X0087Y-00256*
X00859Y-00257*
X00849Y-00261*
X0084Y-00268*
X00833Y-00277*
X00829Y-00287*
X00828Y-00297*
X00829Y-00308*
X00833Y-00318*
X0084Y-00327*
X00849Y-00334*
X00859Y-00338*
X0087Y-00339*
X0088Y-00338*
X00886Y-00336*
X00911Y-00361*
X00916Y-00364*
X00922Y-00365*
X00936*
X00938Y-0037*
X00933Y-00377*
X00929Y-00387*
X00928Y-00397*
X00929Y-00408*
X0093Y-00411*
Y-00886*
X00928Y-00888*
X0092Y-00898*
X00916Y-00909*
X00914Y-00921*
X00916Y-00933*
X00919Y-0094*
X00916Y-00945*
X00887*
X00883Y-0094*
X00886Y-00933*
X00888Y-00921*
X00886Y-00909*
X00882Y-00898*
X00874Y-00888*
X00865Y-00881*
X00854Y-00876*
X00842Y-00875*
X00839Y-00875*
X008Y-00836*
Y-00427*
X0084*
X00849Y-00434*
X00859Y-00438*
X0087Y-00439*
X0088Y-00438*
X00891Y-00434*
X00899Y-00427*
X00906Y-00418*
X0091Y-00408*
X00911Y-00397*
X0091Y-00387*
X00906Y-00377*
X00899Y-00368*
X00891Y-00361*
X0088Y-00357*
X0087Y-00356*
X00859Y-00357*
X00849Y-00361*
X0084Y-00368*
X00799*
X00791Y-00361*
X0078Y-00357*
X0077Y-00356*
X00759Y-00357*
X00749Y-00361*
X0074Y-00368*
X00738Y-00367*
X00735Y-00366*
Y-00353*
X00753Y-00336*
X00759Y-00338*
X0077Y-00339*
X0078Y-00338*
X00791Y-00334*
X00799Y-00327*
X00806Y-00318*
X0081Y-00308*
X00811Y-00297*
X0081Y-00287*
X00806Y-00277*
X00799Y-00268*
X00791Y-00261*
X0078Y-00257*
X0077Y-00256*
X00759Y-00257*
X00749Y-00261*
X0074Y-00268*
X00733Y-00277*
X00729Y-00287*
X00728Y-00297*
X00729Y-00308*
X00731Y-00314*
X00709Y-00336*
X00706Y-00341*
X00705Y-00347*
Y-00367*
X007Y-00369*
X00699Y-00368*
X00691Y-00361*
X0068Y-00357*
X0067Y-00356*
X00659Y-00357*
X00649Y-00361*
X0064Y-00368*
X00627*
X00625Y-00363*
X00628Y-00361*
X00653Y-00336*
X00659Y-00338*
X0067Y-00339*
X0068Y-00338*
X00691Y-00334*
X00699Y-00327*
X00706Y-00318*
X0071Y-00308*
X00711Y-00297*
X0071Y-00287*
X00706Y-00277*
X00699Y-00268*
X00691Y-00261*
X0068Y-00257*
X0067Y-00256*
X00659Y-00257*
X00649Y-00261*
X0064Y-00268*
X00633Y-00277*
X00629Y-00287*
X00628Y-00297*
X00629Y-00308*
X00631Y-00314*
X00611Y-00335*
X00598*
X00596Y-0033*
X00599Y-00327*
X00606Y-00318*
X0061Y-00308*
X00611Y-00297*
X0061Y-00287*
X00606Y-00277*
X00599Y-00268*
X00591Y-00261*
X0058Y-00257*
X0057Y-00256*
X00559Y-00257*
X00549Y-00261*
X0054Y-00268*
X00533Y-00277*
X00529Y-00287*
X00528Y-00297*
X00529Y-00308*
X00533Y-00318*
X0054Y-00327*
X00544Y-0033*
X00543Y-00335*
X00541Y-00336*
X00536Y-00339*
X00508Y-00367*
X00508Y-00367*
X00502Y-00368*
X005Y-00365*
Y-00327*
X00506Y-00318*
X0051Y-00308*
X00511Y-00297*
X0051Y-00287*
X00506Y-00277*
X00499Y-00268*
X00491Y-00261*
X0048Y-00257*
X0047Y-00256*
X00459Y-00257*
X00449Y-00261*
X0044Y-00268*
X00433Y-00277*
X00429Y-00287*
X00428Y-00297*
X00429Y-00308*
X00433Y-00318*
X0044Y-00327*
Y-00368*
X00433Y-00377*
X00429Y-00387*
X00428Y-00397*
X00429Y-00408*
X00433Y-00418*
X0044Y-00427*
Y-00824*
X00441Y-00832*
X00444Y-00839*
X00448Y-00845*
X00762Y-01158*
X00768Y-01163*
X00775Y-01166*
X00783Y-01167*
X00867*
X00869Y-0117*
X00878Y-01177*
X00889Y-01182*
X00901Y-01183*
X00913Y-01182*
X00924Y-01177*
X00933Y-0117*
X00941Y-0116*
X00945Y-01149*
X00947Y-01137*
X00945Y-01125*
X00941Y-01114*
X00933Y-01105*
X00925Y-01099*
X00927Y-01094*
X0096*
X00966Y-01092*
X00971Y-01089*
X01Y-0106*
X01007Y-01063*
X01019Y-01065*
X01031Y-01063*
X01042Y-01059*
X01052Y-01052*
X01059Y-01042*
X01063Y-01031*
X01065Y-01019*
X01064Y-01014*
X01069Y-01012*
X01087Y-0103*
X01092Y-01033*
X01094Y-01034*
X01098Y-01042*
X01105Y-01052*
X01114Y-01059*
X01125Y-01063*
X01137Y-01065*
X01149Y-01063*
X0116Y-01059*
X0117Y-01052*
X01177Y-01042*
X01182Y-01031*
X01183Y-01019*
X01182Y-01014*
X01187Y-01012*
X01205Y-0103*
X0121Y-01033*
X01212Y-01034*
X01216Y-01042*
X01223Y-01052*
X01232Y-01059*
X01244Y-01063*
X01255Y-01065*
X01267Y-01063*
X01278Y-01059*
X01288Y-01052*
X01295Y-01042*
X013Y-01031*
X01301Y-01019*
X01301Y-01014*
X01305Y-01012*
X01323Y-0103*
X01328Y-01033*
X0133Y-01034*
X01334Y-01042*
X01341Y-01052*
X01349Y-01058*
X01348Y-01063*
X01314*
X01309Y-01064*
X01304Y-01067*
X01275Y-01096*
X01267Y-01093*
X01255Y-01091*
X01244Y-01093*
X01232Y-01098*
X01223Y-01105*
X01216Y-01114*
X01211Y-01125*
X0121Y-01137*
X01211Y-01149*
X01216Y-0116*
X01223Y-0117*
X01232Y-01177*
X01244Y-01182*
X01255Y-01183*
X01267Y-01182*
X01278Y-01177*
X01288Y-0117*
X01295Y-0116*
X013Y-01149*
X01301Y-01137*
X013Y-01125*
X01297Y-01118*
X01321Y-01094*
X01348*
X01349Y-01099*
X01341Y-01105*
X01334Y-01114*
X01329Y-01125*
X01329Y-01127*
X01418*
X01418Y-01125*
X01413Y-01114*
X01406Y-01105*
X01398Y-01099*
X01399Y-01094*
X01409*
X01415Y-01092*
X0142Y-01089*
X01447Y-01061*
X01451Y-01057*
X01452Y-01051*
Y-0105*
X01457Y-01048*
X01459Y-01052*
X01469Y-01059*
X0148Y-01063*
X01492Y-01065*
X01503Y-01063*
X01511Y-0106*
X0154Y-01089*
X01545Y-01092*
X01551Y-01094*
X01584*
X01586Y-01099*
X01577Y-01105*
X0157Y-01114*
X01565Y-01125*
X01564Y-01137*
X01565Y-01149*
X0157Y-0116*
X01577Y-0117*
X01587Y-01177*
X01594Y-0118*
Y-0121*
X01589Y-01212*
X01583Y-01203*
X01574Y-01196*
X01563Y-01191*
X01561Y-01191*
Y-01236*
Y-0128*
X01563Y-0128*
X01574Y-01275*
X01583Y-01268*
X01589Y-0126*
X01594Y-01261*
Y-01279*
X01596Y-01285*
X01599Y-0129*
X01634Y-01325*
X01639Y-01329*
X01645Y-0133*
X01897*
X01903Y-01329*
X01908Y-01325*
X02231Y-01002*
X02234Y-00997*
X02235Y-00992*
Y-00429*
X02238Y-00428*
X0224Y-00427*
X02249Y-00434*
X02259Y-00438*
X0227Y-00439*
X0228Y-00438*
X02291Y-00434*
X02299Y-00427*
X02306Y-00418*
X0231Y-00408*
X02311Y-00397*
X0231Y-00387*
X02306Y-00377*
X02299Y-00368*
X02291Y-00361*
X0228Y-00357*
X0227Y-00356*
X02259Y-00357*
X02249Y-00361*
X0224Y-00368*
X02238Y-00367*
X02235Y-00366*
Y-00353*
X02253Y-00336*
X02259Y-00338*
X0227Y-00339*
X0228Y-00338*
X02291Y-00334*
X02299Y-00327*
X02306Y-00318*
X0231Y-00308*
X02311Y-00297*
X0231Y-00287*
X02306Y-00277*
X02299Y-00268*
X02291Y-00261*
X0228Y-00257*
X0227Y-00256*
X02259Y-00257*
X02249Y-00261*
X0224Y-00268*
X02233Y-00277*
X02229Y-00287*
X02228Y-00297*
X02229Y-00308*
X02231Y-00314*
X02209Y-00336*
X02206Y-00341*
X02205Y-00347*
Y-00367*
X022Y-00369*
X02199Y-00368*
X02191Y-00361*
X0218Y-00357*
X0217Y-00356*
X02159Y-00357*
X02149Y-00361*
X0214Y-00368*
X02133Y-00377*
X02129Y-00387*
X02128Y-00397*
X02129Y-00408*
X02133Y-00418*
X0214Y-00427*
X02149Y-00434*
X02154Y-00436*
Y-00941*
X01938Y-01157*
X0184*
X01839Y-01152*
X01841Y-01151*
X01847Y-01147*
X01958Y-01036*
X01962Y-0103*
X01964Y-01027*
X01965Y-01023*
X01966Y-01015*
Y-00834*
X01965Y-00826*
X01964Y-00822*
X01962Y-00819*
X01958Y-00813*
X016Y-00455*
Y-00427*
X01606Y-00418*
X0161Y-00408*
X01611Y-00397*
X0161Y-00387*
X01606Y-00377*
X016Y-00368*
Y-00329*
X01601Y-00328*
X01606Y-0033*
Y-00349*
X01607Y-00355*
X01611Y-0036*
X01631Y-00381*
X01629Y-00387*
X01628Y-00397*
X01629Y-00408*
X01633Y-00418*
X0164Y-00427*
X01649Y-00434*
X01659Y-00438*
X0167Y-00439*
X0168Y-00438*
X01691Y-00434*
X01699Y-00427*
X01706Y-00418*
X0171Y-00408*
X01711Y-00397*
X0171Y-00387*
X01706Y-00377*
X01699Y-00368*
X01691Y-00361*
X0168Y-00357*
X0167Y-00356*
X01659Y-00357*
X01653Y-00359*
X01637Y-00343*
Y-00331*
X01642Y-00328*
X01649Y-00334*
X01659Y-00338*
X0167Y-00339*
X0168Y-00338*
X01691Y-00334*
X01699Y-00327*
X01706Y-00318*
X0171Y-00308*
X01711Y-00297*
X0171Y-00287*
X01706Y-00277*
X01699Y-00268*
X01691Y-00261*
X0168Y-00257*
X0167Y-00256*
X01659Y-00257*
X01649Y-00261*
X01642Y-00266*
X01637Y-00264*
Y-00122*
X01645Y-00121*
X01655Y-00117*
X01663Y-0011*
X01669Y-00102*
X01673Y-00092*
X01675Y-00082*
X01673Y-00072*
X01669Y-00062*
X01663Y-00054*
X01655Y-00048*
X01645Y-00044*
X01635Y-00042*
G37*
G36*
X0206Y-00257D02*
X02059Y-00257D01*
X02049Y-00261*
X0204Y-00268*
X02033Y-00277*
X02029Y-00287*
X02029Y-00288*
X0206*
Y-00257*
G37*
G36*
Y-00307D02*
X02029D01*
X02029Y-00308*
X02033Y-00318*
X0204Y-00327*
X02049Y-00334*
X02059Y-00338*
X0206Y-00338*
Y-00307*
G37*
G36*
X0211D02*
X02079D01*
Y-00338*
X0208Y-00338*
X02091Y-00334*
X02099Y-00327*
X02106Y-00318*
X0211Y-00308*
X0211Y-00307*
G37*
G36*
X0151Y-00407D02*
X01479D01*
Y-00438*
X0148Y-00438*
X01491Y-00434*
X01499Y-00427*
X01506Y-00418*
X0151Y-00408*
X0151Y-00407*
G37*
G36*
X0254Y-00784D02*
X02539Y-00785D01*
X02538Y-00784*
X0253Y-00785*
X02529Y-00786*
X02528Y-00786*
X02521Y-00789*
X0252Y-0079*
X02519Y-0079*
X02513Y-00795*
X02512Y-00796*
X02511Y-00796*
X02507Y-00802*
X02506Y-00803*
X02505Y-00805*
X02503Y-00811*
X02502Y-00813*
X02502Y-00814*
X02501Y-00821*
X02501Y-00822*
X02501Y-00822*
X02501Y-00823*
X02501Y-00824*
X02502Y-00831*
X02502Y-00832*
X02503Y-00833*
X02505Y-0084*
X02506Y-00841*
X02507Y-00842*
X02511Y-00848*
X02512Y-00849*
X02513Y-0085*
X02519Y-00854*
X0252Y-00855*
X02521Y-00856*
X02528Y-00859*
X02529Y-00859*
X0253Y-00859*
X02538Y-0086*
X02539Y-0086*
X0254Y-0086*
X02547Y-00859*
X02549Y-00859*
X0255Y-00859*
X02557Y-00856*
X02558Y-00855*
X02559Y-00854*
X02565Y-0085*
X02566Y-00849*
X02567Y-00848*
X02571Y-00842*
X02572Y-00841*
X02572Y-0084*
X02575Y-00833*
X02575Y-00832*
X02576Y-00831*
X02577Y-00824*
X02577Y-00823*
X02577Y-00822*
X02577Y-00822*
X02577Y-00821*
X02576Y-00814*
X02575Y-00813*
X02575Y-00811*
X02572Y-00805*
X02572Y-00803*
X02571Y-00802*
X02567Y-00796*
X02566Y-00796*
X02565Y-00795*
X02559Y-0079*
X02558Y-0079*
X02557Y-00789*
X0255Y-00786*
X02549Y-00786*
X02547Y-00785*
X0254Y-00784*
G37*
G36*
X0177Y-00356D02*
X01759Y-00357D01*
X01749Y-00361*
X0174Y-00368*
X01733Y-00377*
X01729Y-00387*
X01728Y-00397*
X01729Y-00408*
X01733Y-00418*
X0174Y-00427*
X01749Y-00434*
X01759Y-00438*
X0177Y-00439*
X0178Y-00438*
X01791Y-00434*
X01799Y-00427*
X01806Y-00418*
X0181Y-00408*
X01811Y-00397*
X0181Y-00387*
X01806Y-00377*
X01799Y-00368*
X01791Y-00361*
X0178Y-00357*
X0177Y-00356*
G37*
G36*
X02419Y-00778D02*
Y-00812D01*
X02453*
X02453Y-0081*
X02449Y-00799*
X02441Y-0079*
X02432Y-00783*
X02421Y-00778*
X02419Y-00778*
G37*
G36*
X02453Y-00832D02*
X02419D01*
Y-00867*
X02421Y-00867*
X02432Y-00862*
X02441Y-00855*
X02449Y-00845*
X02453Y-00834*
X02453Y-00832*
G37*
G36*
X02399Y-00778D02*
X02397Y-00778D01*
X02386Y-00783*
X02377Y-0079*
X02369Y-00799*
X02365Y-0081*
X02364Y-00812*
X02399*
Y-00778*
G37*
G36*
X0037Y-00256D02*
X00359Y-00257D01*
X00349Y-00261*
X0034Y-00268*
X00333Y-00277*
X00329Y-00287*
X00328Y-00297*
X00329Y-00308*
X00333Y-00318*
X0034Y-00327*
Y-00368*
X00333Y-00377*
X00329Y-00387*
X00328Y-00397*
X00329Y-00408*
X00333Y-00418*
X0034Y-00427*
Y-00842*
X00341Y-0085*
X00344Y-00857*
X00348Y-00863*
X00742Y-01257*
X00748Y-01262*
X00756Y-01265*
X00763Y-01266*
X00808*
X0081Y-01268*
X00819Y-01275*
X0083Y-0128*
X00842Y-01282*
X00854Y-0128*
X00865Y-01275*
X00874Y-01268*
X00882Y-01259*
X00886Y-01248*
X00888Y-01236*
X00886Y-01224*
X00882Y-01213*
X00874Y-01203*
X00865Y-01196*
X00854Y-01191*
X00842Y-0119*
X0083Y-01191*
X00819Y-01196*
X0081Y-01203*
X00808Y-01206*
X00776*
X004Y-0083*
Y-00427*
X00406Y-00418*
X0041Y-00408*
X00411Y-00397*
X0041Y-00387*
X00406Y-00377*
X004Y-00368*
Y-00327*
X00406Y-00318*
X0041Y-00308*
X00411Y-00297*
X0041Y-00287*
X00406Y-00277*
X00399Y-00268*
X00391Y-00261*
X0038Y-00257*
X0037Y-00256*
G37*
G36*
X0131Y-00407D02*
X01279D01*
Y-00438*
X0128Y-00438*
X01291Y-00434*
X01299Y-00427*
X01306Y-00418*
X0131Y-00408*
X0131Y-00407*
G37*
G36*
X0207Y-00356D02*
X02059Y-00357D01*
X02049Y-00361*
X0204Y-00368*
X02033Y-00377*
X02029Y-00387*
X02028Y-00397*
X02029Y-00408*
X02033Y-00418*
X0204Y-00427*
X02049Y-00434*
X02059Y-00438*
X0207Y-00439*
X0208Y-00438*
X02091Y-00434*
X02099Y-00427*
X02106Y-00418*
X0211Y-00408*
X02111Y-00397*
X0211Y-00387*
X02106Y-00377*
X02099Y-00368*
X02091Y-00361*
X0208Y-00357*
X0207Y-00356*
G37*
G36*
X0187D02*
X01859Y-00357D01*
X01849Y-00361*
X0184Y-00368*
X01833Y-00377*
X01829Y-00387*
X01828Y-00397*
X01829Y-00408*
X01833Y-00418*
X0184Y-00427*
X01849Y-00434*
X01859Y-00438*
X0187Y-00439*
X0188Y-00438*
X01891Y-00434*
X01899Y-00427*
X01906Y-00418*
X0191Y-00408*
X01911Y-00397*
X0191Y-00387*
X01906Y-00377*
X01899Y-00368*
X01891Y-00361*
X0188Y-00357*
X0187Y-00356*
G37*
G36*
X0197D02*
X01959Y-00357D01*
X01949Y-00361*
X0194Y-00368*
X01933Y-00377*
X01929Y-00387*
X01928Y-00397*
X01929Y-00408*
X01933Y-00418*
X0194Y-00427*
X01949Y-00434*
X01959Y-00438*
X0197Y-00439*
X0198Y-00438*
X01991Y-00434*
X01999Y-00427*
X02006Y-00418*
X0201Y-00408*
X02011Y-00397*
X0201Y-00387*
X02006Y-00377*
X01999Y-00368*
X01991Y-00361*
X0198Y-00357*
X0197Y-00356*
G37*
%LNpcb1-3*%
%LPD*%
G36*
X02205Y-00428D02*
Y-00985D01*
X01891Y-01299*
X01652*
X01625Y-01273*
Y-01261*
X0163Y-0126*
X01636Y-01268*
X01646Y-01275*
X01657Y-0128*
X01669Y-01282*
X01681Y-0128*
X01692Y-01275*
X01701Y-01268*
X01708Y-01259*
X01713Y-01248*
X01715Y-01236*
X01713Y-01224*
X01708Y-01213*
X01708Y-01212*
X0171Y-01208*
X01745*
X01748Y-01212*
X01747Y-01213*
X01743Y-01224*
X01741Y-01236*
X01743Y-01248*
X01747Y-01259*
X01755Y-01268*
X01764Y-01275*
X01775Y-0128*
X01787Y-01282*
X01799Y-0128*
X0181Y-01275*
X01819Y-01268*
X01827Y-01259*
X01831Y-01248*
X01833Y-01236*
X01831Y-01224*
X01827Y-01213*
X01819Y-01203*
X0181Y-01196*
X01803Y-01193*
X01804Y-01188*
X01944*
X0195Y-01187*
X01955Y-01184*
X0218Y-00958*
X02184Y-00953*
X02185Y-00948*
Y-00436*
X02191Y-00434*
X02199Y-00427*
X022Y-00426*
X02205Y-00428*
G37*
G36*
X01106Y-0043D02*
Y-00866D01*
X01107Y-00871*
X01111Y-00876*
X01122Y-00888*
Y-00895*
X01117Y-00897*
X01111Y-00888*
X01101Y-00881*
X011Y-0088*
Y-00429*
X01101Y-00428*
X01106Y-0043*
G37*
G36*
X01179Y-00438D02*
X0118Y-00438D01*
X01191Y-00434*
X01196Y-0043*
X01201Y-00432*
Y-00846*
X01202Y-00852*
X01205Y-00857*
X01239Y-0089*
X01238Y-00893*
X01233Y-00894*
X01229Y-00888*
X01219Y-00881*
X01208Y-00876*
X01196Y-00875*
X01184Y-00876*
X01173Y-00881*
X01164Y-00888*
X01158Y-00897*
X01153Y-00895*
Y-00881*
X01151Y-00876*
X01148Y-00871*
X01137Y-00859*
Y-00431*
X01142Y-00428*
X01149Y-00434*
X01159Y-00438*
X0116Y-00438*
Y-00397*
X01179*
Y-00438*
G37*
G36*
X01038Y-0037D02*
X01033Y-00377D01*
X01029Y-00387*
X01028Y-00397*
X01029Y-00408*
X01033Y-00418*
X0104Y-00427*
Y-00896*
X01039Y-00898*
X01034Y-00909*
X01032Y-00921*
X01034Y-00933*
X01037Y-0094*
X01034Y-00945*
X01005*
X01001Y-0094*
X01004Y-00933*
X01006Y-00921*
X01004Y-00909*
X01Y-00898*
X00993Y-00888*
X0099Y-00886*
Y-00434*
X00991Y-00434*
X00999Y-00427*
X01006Y-00418*
X0101Y-00408*
X01011Y-00397*
X0101Y-00387*
X01006Y-00377*
X01001Y-0037*
X01003Y-00365*
X01036*
X01038Y-0037*
G37*
G36*
X0054Y-00427D02*
X00549Y-00434D01*
X00559Y-00438*
X0057Y-00439*
X0058Y-00438*
X00591Y-00434*
X00599Y-00427*
X0064*
Y-00906*
X0064Y-00906*
X00635Y-00909*
X00534Y-00808*
Y-00428*
X00539Y-00426*
X0054Y-00427*
G37*
G54D10*
X0077Y-00397D02*
X0087D01*
X0077Y-00848D02*
Y-00397D01*
Y-00848D02*
X00842Y-00921D01*
X0067Y-00906D02*
Y-00397D01*
Y-00906D02*
X00783Y-01019D01*
X00901*
X00783Y-01137D02*
X00901D01*
X0047Y-00824D02*
X00783Y-01137D01*
X0047Y-00824D02*
Y-00397D01*
Y-00297*
X0037Y-00397D02*
Y-00297D01*
X0057Y-00397D02*
X0067D01*
X0096Y-00921D02*
Y-00407D01*
X0097Y-00397*
X0107Y-00912D02*
Y-00397D01*
Y-00912D02*
X01078Y-00921D01*
X0096Y-01244D02*
Y-01236D01*
X00866Y-01338D02*
X0096Y-01244D01*
X00905Y-00196D02*
X0097Y-00261D01*
Y-00297D02*
Y-00261D01*
X0107Y-00297D02*
Y-00243D01*
X00944Y-00118D02*
X0107Y-00243D01*
X00984Y-01417D02*
X01078Y-01322D01*
Y-01236*
X0037Y-00842D02*
Y-00397D01*
Y-00842D02*
X00763Y-01236D01*
X00842*
X00236Y-00826D02*
X00748Y-01338D01*
X00866*
X00157Y-00866D02*
X00708Y-01417D01*
X00984*
X00236Y-00826D02*
Y-00314D01*
X00354Y-00196*
X00905*
X00157Y-00866D02*
Y-00275D01*
X00314Y-00118*
X00944*
X0157Y-00397D02*
Y-00297D01*
Y-00467D02*
Y-00397D01*
X01937Y-01015D02*
Y-00834D01*
X0157Y-00467D02*
X01937Y-00834D01*
X01728Y-01137D02*
X0174Y-01125D01*
X01826*
X01937Y-01015*
G54D11*
X0096Y-01078D02*
X01019Y-01019D01*
X00783Y-01078D02*
X0096D01*
X00617Y-0035D02*
X0067Y-00297D01*
X00547Y-0035D02*
X00617D01*
X00519Y-00377D02*
X00547Y-0035D01*
X00519Y-00814D02*
X00783Y-01078D01*
X00519Y-00814D02*
Y-00377D01*
X0072Y-00347D02*
X0077Y-00297D01*
X0072Y-00889D02*
Y-00347D01*
Y-00889D02*
X00807Y-00976D01*
X00866*
X00881Y-0096*
X00921*
X0094Y-0098*
X01039Y-0096D02*
X01098Y-01019D01*
X01137*
X0094Y-0098D02*
X0098D01*
X01Y-0096*
X01039*
X00922Y-0035D02*
X01098D01*
X0087Y-00297D02*
X00922Y-0035D01*
X01098D02*
X01122Y-00374D01*
Y-00866D02*
Y-00374D01*
Y-00866D02*
X01137Y-00881D01*
Y-0094D02*
Y-00881D01*
Y-0094D02*
X01216Y-01019D01*
X01255*
X0117Y-00297D02*
X01216Y-00344D01*
Y-00846D02*
Y-00344D01*
X01334Y-01019D02*
X01374D01*
X01255Y-0094D02*
X01334Y-01019D01*
X01255Y-0094D02*
Y-00885D01*
X01216Y-00846D02*
X01255Y-00885D01*
X01318Y-00346D02*
X0137Y-00397D01*
X01318Y-00346D02*
Y-0022D01*
X01358Y-00181*
X01437*
X01535Y-00082*
X01622Y-00349D02*
X0167Y-00397D01*
X01622Y-00349D02*
Y-00096D01*
X01635Y-00082*
X01255Y-01137D02*
X01314Y-01078D01*
X01409*
X01437Y-01051*
Y-01*
X01377Y-0094D02*
X01437Y-01D01*
X01377Y-0094D02*
Y-00507D01*
X01421Y-00464*
Y-00346*
X0147Y-00297*
X01492Y-01019D02*
X01551Y-01078D01*
X01944Y-01173D02*
X0217Y-00948D01*
Y-00397*
X01775Y-01173D02*
X01944D01*
X01673Y-01161D02*
X01704Y-01192D01*
X01755*
X01775Y-01173*
X01551Y-01078D02*
X01645D01*
X01673Y-01106*
Y-01161D02*
Y-01106D01*
X0222Y-00347D02*
X0227Y-00297D01*
X0222Y-00992D02*
Y-00347D01*
X01897Y-01314D02*
X0222Y-00992D01*
X01645Y-01314D02*
X01897D01*
X0161Y-01279D02*
X01645Y-01314D01*
X0161Y-01279D02*
Y-01137D01*
G54D12*
X01169Y-00379D03*
G54D13*
X01787Y-01236D03*
X01669D03*
X01728Y-01137D03*
X0161D03*
X01728Y-01019D03*
X0161D03*
X01787Y-00921D03*
X01669D03*
X00842Y-01236D03*
X0096D03*
X01078D03*
X01196D03*
X01314D03*
X01433D03*
X01551D03*
X00901Y-01137D03*
X01019D03*
X01137D03*
X01255D03*
X01374D03*
X01492D03*
Y-01019D03*
X01374D03*
X01255D03*
X01137D03*
X01019D03*
X00901D03*
X01551Y-00921D03*
X01433D03*
X01314D03*
X01196D03*
X01078D03*
X0096D03*
X00842D03*
X02409Y-00822D03*
Y-01019D03*
G54D14*
X0227Y-00397D03*
X0217D03*
X0207D03*
X0197D03*
X0187D03*
X0177D03*
X0167D03*
X0157D03*
X0147D03*
X0137D03*
X0127D03*
X0117D03*
X0107D03*
X0097D03*
X0087D03*
X0077D03*
X0067D03*
X0057D03*
X0047D03*
X0037D03*
X0227Y-00297D03*
X0217D03*
X0207D03*
X0197D03*
X0187D03*
X0177D03*
X0167D03*
X0157D03*
X0147D03*
X0137D03*
X0127D03*
X0117D03*
X0107D03*
X0097D03*
X0087D03*
X0077D03*
X0067D03*
X0057D03*
X0047D03*
X0037D03*
G54D15*
X01635Y-00082D03*
X01535D03*
G54D16*
X01435Y-00082D03*
M02*