%FSTAX23Y23*%
%MOIN*%
%SFA1B1*%

%IPPOS*%
%ADD10C,0.039370*%
%ADD11C,0.010000*%
%ADD13C,0.070866*%
%ADD14C,0.062992*%
%ADD15C,0.059055*%
%ADD16R,0.059055X0.059055*%
%LNpcb1-1*%
%LPD*%
G36*
X0257Y-00016D02*
X02582Y-00019D01*
X02592Y-00025*
X02601Y-00032*
X02602Y-00033*
X0261Y-00041*
X0261Y-00041*
X02617Y-00049*
X02621Y-0006*
X02622Y-0007*
X02622Y-0007*
Y-01389*
Y-01429*
X02622Y-01429*
X02621Y-01439*
X02617Y-0145*
X0261Y-01458*
X0261Y-01458*
X02609Y-01459*
X02598Y-01468*
X02585Y-01475*
X02571Y-01479*
X02557Y-0148*
X02556Y-0148*
X0007*
X0007Y-0148*
X0006Y-01479*
X00049Y-01475*
X00041Y-01468*
X00041Y-01468*
X00033Y-0146*
X00032Y-0146*
X00025Y-01451*
X00019Y-0144*
X00016Y-01429*
X00015Y-01417*
X00015Y-01417*
Y-00078*
X00015Y-00078*
X00016Y-00066*
X00019Y-00055*
X00025Y-00044*
X00032Y-00035*
X00033Y-00035*
X00035Y-00033*
X00035Y-00032*
X00044Y-00025*
X00055Y-00019*
X00066Y-00016*
X00078Y-00015*
X00078Y-00015*
X02559*
X02559Y-00015*
X0257Y-00016*
G37*
%LNpcb1-2*%
%LPC*%
G36*
X00842Y-00875D02*
X0083Y-00876D01*
X00819Y-00881*
X0081Y-00888*
X00802Y-00898*
X00798Y-00909*
X00796Y-00921*
X00798Y-00933*
X00802Y-00944*
X0081Y-00953*
X00819Y-0096*
X0083Y-00965*
X00842Y-00967*
X00854Y-00965*
X00865Y-0096*
X00874Y-00953*
X00882Y-00944*
X00886Y-00933*
X00888Y-00921*
X00886Y-00909*
X00882Y-00898*
X00874Y-00888*
X00865Y-00881*
X00854Y-00876*
X00842Y-00875*
G37*
G36*
X02399Y-00832D02*
X02364D01*
X02365Y-00834*
X02369Y-00845*
X02377Y-00855*
X02386Y-00862*
X02397Y-00867*
X02399Y-00867*
Y-00832*
G37*
G36*
X0254Y-00981D02*
X02539Y-00981D01*
X02538Y-00981*
X0253Y-00982*
X02529Y-00983*
X02528Y-00983*
X02521Y-00986*
X0252Y-00986*
X02519Y-00987*
X02513Y-00991*
X02512Y-00992*
X02511Y-00993*
X02507Y-00999*
X02506Y-01*
X02505Y-01001*
X02503Y-01008*
X02502Y-01009*
X02502Y-01011*
X02501Y-01018*
X02501Y-01019*
X02501Y-01019*
X02501Y-0102*
X02501Y-01021*
X02502Y-01028*
X02502Y-01029*
X02503Y-0103*
X02505Y-01037*
X02506Y-01038*
X02507Y-01039*
X02511Y-01045*
X02512Y-01046*
X02513Y-01047*
X02519Y-01051*
X0252Y-01052*
X02521Y-01053*
X02528Y-01055*
X02529Y-01056*
X0253Y-01056*
X02538Y-01057*
X02539Y-01057*
X0254Y-01057*
X02547Y-01056*
X02549Y-01056*
X0255Y-01055*
X02557Y-01053*
X02558Y-01052*
X02559Y-01051*
X02565Y-01047*
X02566Y-01046*
X02567Y-01045*
X02571Y-01039*
X02572Y-01038*
X02572Y-01037*
X02575Y-0103*
X02575Y-01029*
X02576Y-01028*
X02577Y-01021*
X02577Y-0102*
X02577Y-01019*
X02577Y-01019*
X02577Y-01018*
X02576Y-01011*
X02575Y-01009*
X02575Y-01008*
X02572Y-01001*
X02572Y-01*
X02571Y-00999*
X02567Y-00993*
X02566Y-00992*
X02565Y-00991*
X02559Y-00987*
X02558Y-00986*
X02557Y-00986*
X0255Y-00983*
X02549Y-00983*
X02547Y-00982*
X0254Y-00981*
G37*
G36*
X01536Y-01147D02*
X01501D01*
Y-01182*
X01503Y-01182*
X01515Y-01177*
X01524Y-0117*
X01531Y-0116*
X01536Y-01149*
X01536Y-01147*
G37*
G36*
X02409Y-00973D02*
X02397Y-00975D01*
X02386Y-0098*
X02377Y-00987*
X02369Y-00996*
X02365Y-01007*
X02363Y-01019*
X02364Y-01022*
X0218Y-01206*
X01821*
X01819Y-01203*
X0181Y-01196*
X01799Y-01191*
X01787Y-0119*
X01775Y-01191*
X01764Y-01196*
X01755Y-01203*
X01753Y-01206*
X01703*
X01701Y-01203*
X01692Y-01196*
X01681Y-01191*
X01669Y-0119*
X01657Y-01191*
X01646Y-01196*
X01636Y-01203*
X01629Y-01213*
X01625Y-01224*
X01623Y-01236*
X01625Y-01248*
X01629Y-01259*
X01636Y-01268*
X01646Y-01275*
X01657Y-0128*
X01669Y-01282*
X01681Y-0128*
X01692Y-01275*
X01701Y-01268*
X01703Y-01266*
X01753*
X01755Y-01268*
X01764Y-01275*
X01775Y-0128*
X01787Y-01282*
X01799Y-0128*
X0181Y-01275*
X01819Y-01268*
X01821Y-01266*
X02192*
X022Y-01265*
X02207Y-01262*
X02214Y-01257*
X02406Y-01065*
X02409Y-01065*
X02421Y-01063*
X02432Y-01059*
X02441Y-01052*
X02449Y-01042*
X02453Y-01031*
X02455Y-01019*
X02453Y-01007*
X02449Y-00996*
X02441Y-00987*
X02432Y-0098*
X02421Y-00975*
X02409Y-00973*
G37*
G36*
X02453Y-00832D02*
X02419D01*
Y-00867*
X02421Y-00867*
X02432Y-00862*
X02441Y-00855*
X02449Y-00845*
X02453Y-00834*
X02453Y-00832*
G37*
G36*
X0037Y-00356D02*
X00359Y-00357D01*
X00349Y-00361*
X0034Y-00368*
X00333Y-00377*
X00329Y-00387*
X00328Y-00397*
X00329Y-00408*
X00333Y-00418*
X0034Y-00427*
X00349Y-00434*
X00359Y-00438*
X0037Y-00439*
X0038Y-00438*
X00391Y-00434*
X00399Y-00427*
X00406Y-00418*
X0041Y-00408*
X00411Y-00397*
X0041Y-00387*
X00406Y-00377*
X00399Y-00368*
X00391Y-00361*
X0038Y-00357*
X0037Y-00356*
G37*
G36*
X0047D02*
X00459Y-00357D01*
X00449Y-00361*
X0044Y-00368*
X00433Y-00377*
X00429Y-00387*
X00428Y-00397*
X00429Y-00408*
X00433Y-00418*
X0044Y-00427*
X00449Y-00434*
X00459Y-00438*
X0047Y-00439*
X0048Y-00438*
X00491Y-00434*
X00499Y-00427*
X00506Y-00418*
X0051Y-00408*
X00511Y-00397*
X0051Y-00387*
X00506Y-00377*
X00499Y-00368*
X00491Y-00361*
X0048Y-00357*
X0047Y-00356*
G37*
G36*
X0254Y-00784D02*
X02539Y-00785D01*
X02538Y-00784*
X0253Y-00785*
X02529Y-00786*
X02528Y-00786*
X02521Y-00789*
X0252Y-0079*
X02519Y-0079*
X02513Y-00795*
X02512Y-00796*
X02511Y-00796*
X02507Y-00802*
X02506Y-00803*
X02505Y-00805*
X02503Y-00811*
X02502Y-00813*
X02502Y-00814*
X02501Y-00821*
X02501Y-00822*
X02501Y-00822*
X02501Y-00823*
X02501Y-00824*
X02502Y-00831*
X02502Y-00832*
X02503Y-00833*
X02505Y-0084*
X02506Y-00841*
X02507Y-00842*
X02511Y-00848*
X02512Y-00849*
X02513Y-0085*
X02519Y-00854*
X0252Y-00855*
X02521Y-00856*
X02528Y-00859*
X02529Y-00859*
X0253Y-00859*
X02538Y-0086*
X02539Y-0086*
X0254Y-0086*
X02547Y-00859*
X02549Y-00859*
X0255Y-00859*
X02557Y-00856*
X02558Y-00855*
X02559Y-00854*
X02565Y-0085*
X02566Y-00849*
X02567Y-00848*
X02571Y-00842*
X02572Y-00841*
X02572Y-0084*
X02575Y-00833*
X02575Y-00832*
X02576Y-00831*
X02577Y-00824*
X02577Y-00823*
X02577Y-00822*
X02577Y-00822*
X02577Y-00821*
X02576Y-00814*
X02575Y-00813*
X02575Y-00811*
X02572Y-00805*
X02572Y-00803*
X02571Y-00802*
X02567Y-00796*
X02566Y-00796*
X02565Y-00795*
X02559Y-0079*
X02558Y-0079*
X02557Y-00789*
X0255Y-00786*
X02549Y-00786*
X02547Y-00785*
X0254Y-00784*
G37*
G36*
X02399Y-00778D02*
X02397Y-00778D01*
X02386Y-00783*
X02377Y-0079*
X02369Y-00799*
X02365Y-0081*
X02364Y-00812*
X02399*
Y-00778*
G37*
G36*
X02419D02*
Y-00812D01*
X02453*
X02453Y-0081*
X02449Y-00799*
X02441Y-0079*
X02432Y-00783*
X02421Y-00778*
X02419Y-00778*
G37*
G36*
X01364Y-01147D02*
X01329D01*
X01329Y-01149*
X01334Y-0116*
X01341Y-0117*
X01351Y-01177*
X01362Y-01182*
X01364Y-01182*
Y-01147*
G37*
G36*
X01477Y-01246D02*
X01442D01*
Y-0128*
X01444Y-0128*
X01455Y-01275*
X01465Y-01268*
X01472Y-01259*
X01477Y-01248*
X01477Y-01246*
G37*
G36*
X01541D02*
X01506D01*
X01506Y-01248*
X01511Y-01259*
X01518Y-01268*
X01528Y-01275*
X01539Y-0128*
X01541Y-0128*
Y-01246*
G37*
G36*
X01078Y-0119D02*
X01066Y-01191D01*
X01055Y-01196*
X01046Y-01203*
X01039Y-01213*
X01034Y-01224*
X01032Y-01236*
X01034Y-01248*
X01039Y-01259*
X01046Y-01268*
X01055Y-01275*
X01066Y-0128*
X01078Y-01282*
X0109Y-0128*
X01101Y-01275*
X01111Y-01268*
X01118Y-01259*
X01123Y-01248*
X01124Y-01236*
X01123Y-01224*
X01118Y-01213*
X01111Y-01203*
X01101Y-01196*
X0109Y-01191*
X01078Y-0119*
G37*
G36*
X00842D02*
X0083Y-01191D01*
X00819Y-01196*
X0081Y-01203*
X00802Y-01213*
X00798Y-01224*
X00796Y-01236*
X00798Y-01248*
X00802Y-01259*
X0081Y-01268*
X00819Y-01275*
X0083Y-0128*
X00842Y-01282*
X00854Y-0128*
X00865Y-01275*
X00874Y-01268*
X00882Y-01259*
X00886Y-01248*
X00888Y-01236*
X00886Y-01224*
X00882Y-01213*
X00874Y-01203*
X00865Y-01196*
X00854Y-01191*
X00842Y-0119*
G37*
G36*
X0096D02*
X00948Y-01191D01*
X00937Y-01196*
X00928Y-01203*
X0092Y-01213*
X00916Y-01224*
X00914Y-01236*
X00916Y-01248*
X0092Y-01259*
X00928Y-01268*
X00937Y-01275*
X00948Y-0128*
X0096Y-01282*
X00972Y-0128*
X00983Y-01275*
X00993Y-01268*
X01Y-01259*
X01004Y-01248*
X01006Y-01236*
X01004Y-01224*
X01Y-01213*
X00993Y-01203*
X00983Y-01196*
X00972Y-01191*
X0096Y-0119*
G37*
G36*
X01595Y-01246D02*
X01561D01*
Y-0128*
X01563Y-0128*
X01574Y-01275*
X01583Y-01268*
X0159Y-01259*
X01595Y-01248*
X01595Y-01246*
G37*
G36*
X0161Y-01091D02*
X01598Y-01093D01*
X01587Y-01098*
X01577Y-01105*
X0157Y-01114*
X01565Y-01125*
X01564Y-01137*
X01565Y-01149*
X0157Y-0116*
X01577Y-0117*
X01587Y-01177*
X01598Y-01182*
X0161Y-01183*
X01622Y-01182*
X01633Y-01177*
X01642Y-0117*
X01649Y-0116*
X01654Y-01149*
X01656Y-01137*
X01654Y-01125*
X01649Y-01114*
X01642Y-01105*
X01633Y-01098*
X01622Y-01093*
X0161Y-01091*
G37*
G36*
X01728D02*
X01716Y-01093D01*
X01705Y-01098*
X01695Y-01105*
X01688Y-01114*
X01684Y-01125*
X01682Y-01137*
X01684Y-01149*
X01688Y-0116*
X01695Y-0117*
X01705Y-01177*
X01716Y-01182*
X01728Y-01183*
X0174Y-01182*
X01751Y-01177*
X0176Y-0117*
X01768Y-0116*
X01772Y-01149*
X01774Y-01137*
X01772Y-01125*
X01768Y-01114*
X0176Y-01105*
X01751Y-01098*
X0174Y-01093*
X01728Y-01091*
G37*
G36*
X00901D02*
X00889Y-01093D01*
X00878Y-01098*
X00869Y-01105*
X00861Y-01114*
X00857Y-01125*
X00855Y-01137*
X00857Y-01149*
X00861Y-0116*
X00869Y-0117*
X00878Y-01177*
X00889Y-01182*
X00901Y-01183*
X00913Y-01182*
X00924Y-01177*
X00933Y-0117*
X00941Y-0116*
X00945Y-01149*
X00947Y-01137*
X00945Y-01125*
X00941Y-01114*
X00933Y-01105*
X00924Y-01098*
X00913Y-01093*
X00901Y-01091*
G37*
G36*
X01541Y-01191D02*
X01539Y-01191D01*
X01528Y-01196*
X01518Y-01203*
X01511Y-01213*
X01506Y-01224*
X01506Y-01226*
X01541*
Y-01191*
G37*
G36*
X01561D02*
Y-01226D01*
X01595*
X01595Y-01224*
X0159Y-01213*
X01583Y-01203*
X01574Y-01196*
X01563Y-01191*
X01561Y-01191*
G37*
G36*
X0057Y-00356D02*
X00559Y-00357D01*
X00549Y-00361*
X0054Y-00368*
X00533Y-00377*
X00529Y-00387*
X00528Y-00397*
X00529Y-00408*
X00533Y-00418*
X0054Y-00427*
X00549Y-00434*
X00559Y-00438*
X0057Y-00439*
X0058Y-00438*
X00591Y-00434*
X00599Y-00427*
X00606Y-00418*
X0061Y-00408*
X00611Y-00397*
X0061Y-00387*
X00606Y-00377*
X00599Y-00368*
X00591Y-00361*
X0058Y-00357*
X0057Y-00356*
G37*
G36*
X0067Y-00256D02*
X00659Y-00257D01*
X00649Y-00261*
X0064Y-00268*
X00633Y-00277*
X00629Y-00287*
X00628Y-00297*
X00629Y-00308*
X00633Y-00318*
X0064Y-00327*
X00649Y-00334*
X00659Y-00338*
X0067Y-00339*
X0068Y-00338*
X00691Y-00334*
X00699Y-00327*
X00706Y-00318*
X0071Y-00308*
X00711Y-00297*
X0071Y-00287*
X00706Y-00277*
X00699Y-00268*
X00691Y-00261*
X0068Y-00257*
X0067Y-00256*
G37*
G36*
X0077D02*
X00759Y-00257D01*
X00749Y-00261*
X0074Y-00268*
X00733Y-00277*
X00729Y-00287*
X00728Y-00297*
X00729Y-00308*
X00733Y-00318*
X0074Y-00327*
X00749Y-00334*
X00759Y-00338*
X0077Y-00339*
X0078Y-00338*
X00791Y-00334*
X00799Y-00327*
X00806Y-00318*
X0081Y-00308*
X00811Y-00297*
X0081Y-00287*
X00806Y-00277*
X00799Y-00268*
X00791Y-00261*
X0078Y-00257*
X0077Y-00256*
G37*
G36*
X0087D02*
X00859Y-00257D01*
X00849Y-00261*
X0084Y-00268*
X00833Y-00277*
X00829Y-00287*
X00828Y-00297*
X00829Y-00308*
X00833Y-00318*
X0084Y-00327*
X00849Y-00334*
X00859Y-00338*
X0087Y-00339*
X0088Y-00338*
X00891Y-00334*
X00899Y-00327*
X00906Y-00318*
X0091Y-00308*
X00911Y-00297*
X0091Y-00287*
X00906Y-00277*
X00899Y-00268*
X00891Y-00261*
X0088Y-00257*
X0087Y-00256*
G37*
G36*
X01479Y-00357D02*
Y-00388D01*
X0151*
X0151Y-00387*
X01506Y-00377*
X01499Y-00368*
X01491Y-00361*
X0148Y-00357*
X01479Y-00357*
G37*
G36*
X0037Y-00256D02*
X00359Y-00257D01*
X00349Y-00261*
X0034Y-00268*
X00333Y-00277*
X00329Y-00287*
X00328Y-00297*
X00329Y-00308*
X00333Y-00318*
X0034Y-00327*
X00349Y-00334*
X00359Y-00338*
X0037Y-00339*
X0038Y-00338*
X00391Y-00334*
X00399Y-00327*
X00406Y-00318*
X0041Y-00308*
X00411Y-00297*
X0041Y-00287*
X00406Y-00277*
X00399Y-00268*
X00391Y-00261*
X0038Y-00257*
X0037Y-00256*
G37*
G36*
X0047D02*
X00459Y-00257D01*
X00449Y-00261*
X0044Y-00268*
X00433Y-00277*
X00429Y-00287*
X00428Y-00297*
X00429Y-00308*
X00433Y-00318*
X0044Y-00327*
X00449Y-00334*
X00459Y-00338*
X0047Y-00339*
X0048Y-00338*
X00491Y-00334*
X00499Y-00327*
X00506Y-00318*
X0051Y-00308*
X00511Y-00297*
X0051Y-00287*
X00506Y-00277*
X00499Y-00268*
X00491Y-00261*
X0048Y-00257*
X0047Y-00256*
G37*
G36*
X01535Y-00042D02*
X01525Y-00044D01*
X01515Y-00048*
X01507Y-00054*
X015Y-00062*
X01496Y-00072*
X01495Y-00082*
X01496Y-00092*
X015Y-00102*
X01507Y-0011*
X01515Y-00117*
X01525Y-00121*
X01535Y-00122*
X01545Y-00121*
X01555Y-00117*
X01563Y-0011*
X01569Y-00102*
X01573Y-00092*
X01575Y-00082*
X01573Y-00072*
X01569Y-00062*
X01563Y-00054*
X01555Y-00048*
X01545Y-00044*
X01535Y-00042*
G37*
G36*
X01635D02*
X01625Y-00044D01*
X01615Y-00048*
X01607Y-00054*
X016Y-00062*
X01596Y-00072*
X01595Y-00082*
X01596Y-00092*
X016Y-00102*
X01607Y-0011*
X01615Y-00117*
X01625Y-00121*
X01635Y-00122*
X01645Y-00121*
X01655Y-00117*
X01663Y-0011*
X01669Y-00102*
X01673Y-00092*
X01675Y-00082*
X01673Y-00072*
X01669Y-00062*
X01663Y-00054*
X01655Y-00048*
X01645Y-00044*
X01635Y-00042*
G37*
G36*
X01464Y-00042D02*
X01405D01*
X01402Y-00043*
X01398Y-00045*
X01396Y-00049*
X01395Y-00053*
Y-00067*
X00692*
X00687Y-00068*
X00682Y-00071*
X00559Y-00194*
X00555Y-00199*
X00554Y-00205*
Y-00259*
X00549Y-00261*
X0054Y-00268*
X00533Y-00277*
X00529Y-00287*
X00528Y-00297*
X00529Y-00308*
X00533Y-00318*
X0054Y-00327*
X00549Y-00334*
X00559Y-00338*
X0057Y-00339*
X0058Y-00338*
X00591Y-00334*
X00599Y-00327*
X00606Y-00318*
X0061Y-00308*
X00611Y-00297*
X0061Y-00287*
X00606Y-00277*
X00599Y-00268*
X00591Y-00261*
X00585Y-00259*
Y-00211*
X00699Y-00097*
X01395*
Y-00112*
X01396Y-00116*
X01398Y-00119*
X01402Y-00121*
X01405Y-00122*
X01464*
X01468Y-00121*
X01472Y-00119*
X01474Y-00116*
X01475Y-00112*
Y-00053*
X01474Y-00049*
X01472Y-00045*
X01468Y-00043*
X01464Y-00042*
G37*
G36*
X0097Y-00256D02*
X00959Y-00257D01*
X00949Y-00261*
X0094Y-00268*
X00933Y-00277*
X00929Y-00287*
X00928Y-00297*
X00929Y-00308*
X00933Y-00318*
X0094Y-00327*
X00949Y-00334*
X00959Y-00338*
X0097Y-00339*
X0098Y-00338*
X00991Y-00334*
X00999Y-00327*
X01006Y-00318*
X0101Y-00308*
X01011Y-00297*
X0101Y-00287*
X01006Y-00277*
X00999Y-00268*
X00991Y-00261*
X0098Y-00257*
X0097Y-00256*
G37*
G36*
X0157D02*
X01559Y-00257D01*
X01549Y-00261*
X0154Y-00268*
X01533Y-00277*
X01529Y-00287*
X01528Y-00297*
X01529Y-00308*
X01533Y-00318*
X0154Y-00327*
X01549Y-00334*
X01559Y-00338*
X0157Y-00339*
X0158Y-00338*
X01591Y-00334*
X01599Y-00327*
X01606Y-00318*
X0161Y-00308*
X01611Y-00297*
X0161Y-00287*
X01606Y-00277*
X01599Y-00268*
X01591Y-00261*
X0158Y-00257*
X0157Y-00256*
G37*
G36*
X02181Y-00209D02*
X02059D01*
X02053Y-0021*
X02048Y-00213*
X02008Y-00252*
X02005Y-00257*
X02004Y-00263*
Y-00266*
X02001Y-00267*
X01999Y-00268*
X01991Y-00261*
X0198Y-00257*
X0197Y-00256*
X01959Y-00257*
X01949Y-00261*
X0194Y-00268*
X01933Y-00277*
X01929Y-00287*
X01928Y-00297*
X01929Y-00308*
X01931Y-00314*
X0191Y-00335*
X01907Y-0034*
X01905Y-00346*
Y-00368*
X01901Y-0037*
X01899Y-00368*
X01891Y-00361*
X0188Y-00357*
X0187Y-00356*
X01859Y-00357*
X01849Y-00361*
X0184Y-00368*
X01838Y-0037*
X01834Y-00368*
Y-00355*
X01853Y-00336*
X01859Y-00338*
X0187Y-00339*
X0188Y-00338*
X01891Y-00334*
X01899Y-00327*
X01906Y-00318*
X0191Y-00308*
X01911Y-00297*
X0191Y-00287*
X01906Y-00277*
X01899Y-00268*
X01891Y-00261*
X0188Y-00257*
X0187Y-00256*
X01859Y-00257*
X01849Y-00261*
X0184Y-00268*
X01833Y-00277*
X01829Y-00287*
X01828Y-00297*
X01829Y-00308*
X01831Y-00314*
X01808Y-00338*
X01804Y-00343*
X01803Y-00349*
Y-00365*
X01798Y-00367*
X01791Y-00361*
X0178Y-00357*
X0177Y-00356*
X01759Y-00357*
X01749Y-00361*
X0174Y-00368*
X01733Y-00377*
X01729Y-00387*
X01728Y-00397*
X01729Y-00408*
X01733Y-00418*
X0174Y-00427*
Y-00489*
X01411Y-00817*
X01407Y-00823*
X01404Y-0083*
X01403Y-00838*
Y-00886*
X014Y-00888*
X01393Y-00898*
X01388Y-00909*
X01387Y-00921*
X01388Y-00933*
X01393Y-00944*
X014Y-00953*
X0141Y-0096*
X01421Y-00965*
X01433Y-00967*
X01437Y-00966*
X0144Y-00971*
X01422Y-00989*
X01418Y-00994*
X01418Y-00995*
X01415Y-00996*
X01413Y-00996*
X01406Y-00987*
X01396Y-0098*
X01385Y-00975*
X01374Y-00973*
X01362Y-00975*
X01351Y-0098*
X01341Y-00987*
X01334Y-00996*
X01329Y-01007*
X01328Y-01019*
X01329Y-01031*
X01334Y-01042*
X01341Y-01052*
X01349Y-01058*
X01348Y-01063*
X01281*
X0128Y-01058*
X01288Y-01052*
X01295Y-01042*
X013Y-01031*
X01301Y-01019*
X013Y-01007*
X01295Y-00996*
X01288Y-00987*
X01278Y-0098*
X01267Y-00975*
X01255Y-00973*
X01244Y-00975*
X01232Y-0098*
X01223Y-00987*
X01216Y-00996*
X01211Y-01007*
X0121Y-01019*
X01211Y-01031*
X01216Y-01042*
X01223Y-01052*
X01231Y-01058*
X0123Y-01063*
X01224*
X01218Y-01064*
X01213Y-01067*
X01186Y-01095*
X01182Y-011*
X01181Y-01106*
Y-01112*
X01176Y-01113*
X0117Y-01105*
X0116Y-01098*
X01149Y-01093*
X01137Y-01091*
X01133Y-01092*
X01097Y-01056*
Y-0105*
X01102Y-01048*
X01105Y-01052*
X01114Y-01059*
X01125Y-01063*
X01137Y-01065*
X01149Y-01063*
X0116Y-01059*
X0117Y-01052*
X01177Y-01042*
X01182Y-01031*
X01183Y-01019*
X01182Y-01007*
X01177Y-00996*
X0117Y-00987*
X0116Y-0098*
X01149Y-00975*
X01137Y-00973*
X01128Y-00975*
X01126Y-0097*
X01151Y-00944*
X01154Y-00944*
X01157Y-00945*
X01164Y-00953*
X01173Y-0096*
X01184Y-00965*
X01196Y-00967*
X01208Y-00965*
X01219Y-0096*
X01229Y-00953*
X01236Y-00944*
X01241Y-00933*
X01242Y-00921*
X01241Y-00909*
X01236Y-00898*
X01229Y-00888*
X01219Y-00881*
X01212Y-00878*
Y-00718*
X01432Y-00499*
X01435Y-00494*
X01436Y-00488*
Y-00429*
X01441Y-00428*
X01449Y-00434*
X01459Y-00438*
X0146Y-00438*
Y-00397*
Y-00357*
X01459Y-00357*
X01449Y-00361*
X01441Y-00367*
X01436Y-00365*
Y-00329*
X01441Y-00328*
X01449Y-00334*
X01459Y-00338*
X0147Y-00339*
X0148Y-00338*
X01491Y-00334*
X01499Y-00327*
X01506Y-00318*
X0151Y-00308*
X01511Y-00297*
X0151Y-00287*
X01506Y-00277*
X01499Y-00268*
X01491Y-00261*
X0148Y-00257*
X0147Y-00256*
X01459Y-00257*
X01449Y-00261*
X01444Y-00265*
X01441Y-00261*
X01459Y-00243*
X01594*
X01631Y-00281*
X01629Y-00287*
X01628Y-00297*
X01629Y-00308*
X01633Y-00318*
X0164Y-00327*
X01641Y-00328*
X0164Y-00334*
X01638Y-00335*
X01611Y-00363*
X01607Y-00368*
X01607Y-0037*
X01602Y-00371*
X01599Y-00368*
X01591Y-00361*
X0158Y-00357*
X0157Y-00356*
X01559Y-00357*
X01549Y-00361*
X0154Y-00368*
X01533Y-00377*
X01529Y-00387*
X01528Y-00397*
X01529Y-00408*
X01533Y-00418*
X0154Y-00427*
X01549Y-00434*
X01559Y-00438*
X0157Y-00439*
X0158Y-00438*
X01591Y-00434*
X01599Y-00427*
X01601Y-00424*
X01606Y-00426*
Y-00477*
X01304Y-0078*
X013Y-00785*
X01299Y-00791*
Y-00878*
X01292Y-00881*
X01282Y-00888*
X01275Y-00898*
X0127Y-00909*
X01269Y-00921*
X0127Y-00933*
X01275Y-00944*
X01282Y-00953*
X01292Y-0096*
X01303Y-00965*
X01314Y-00967*
X01326Y-00965*
X01337Y-0096*
X01347Y-00953*
X01354Y-00944*
X01359Y-00933*
X0136Y-00921*
X01359Y-00909*
X01354Y-00898*
X01347Y-00888*
X01337Y-00881*
X0133Y-00878*
Y-00797*
X01632Y-00495*
X01636Y-0049*
X01637Y-00484*
Y-00431*
X01642Y-00428*
X01649Y-00434*
X01659Y-00438*
X0167Y-00439*
X0168Y-00438*
X01691Y-00434*
X01699Y-00427*
X01706Y-00418*
X0171Y-00408*
X01711Y-00397*
X0171Y-00387*
X01706Y-00377*
X01699Y-00368*
X01697Y-00366*
X01698Y-00361*
X01724*
X0173Y-0036*
X01735Y-00357*
X01755Y-00336*
X01759Y-00338*
X0177Y-00339*
X0178Y-00338*
X01791Y-00334*
X01799Y-00327*
X01806Y-00318*
X0181Y-00308*
X01811Y-00297*
X0181Y-00287*
X01806Y-00277*
X01799Y-00268*
X01791Y-00261*
X0178Y-00257*
X0177Y-00256*
X01759Y-00257*
X01749Y-00261*
X0174Y-00268*
X01733Y-00277*
X01729Y-00287*
X01728Y-00297*
X01729Y-00308*
X01732Y-00316*
X01718Y-00331*
X01702*
X017Y-00326*
X01706Y-00318*
X0171Y-00308*
X01711Y-00297*
X0171Y-00287*
X01706Y-00277*
X01699Y-00268*
X01691Y-00261*
X0168Y-00257*
X0167Y-00256*
X01659Y-00257*
X01653Y-00259*
X01611Y-00217*
X01606Y-00214*
X016Y-00213*
X01452*
X01446Y-00214*
X01441Y-00217*
X0141Y-00249*
X01407Y-00253*
X01405Y-00259*
Y-00268*
X01401Y-0027*
X01399Y-00268*
X01391Y-00261*
X0138Y-00257*
X0137Y-00256*
X01359Y-00257*
X01349Y-00261*
X0134Y-00268*
X01333Y-00277*
X01329Y-00287*
X01328Y-00297*
X01329Y-00308*
X01331Y-00314*
X01308Y-00338*
X01304Y-00343*
X01303Y-00349*
Y-00365*
X01298Y-00367*
X01291Y-00361*
X0128Y-00357*
X01279Y-00357*
Y-00397*
Y-00438*
X0128Y-00438*
X01291Y-00434*
X01298Y-00428*
X01303Y-00429*
Y-00442*
X0113Y-00615*
X01127Y-0062*
X01126Y-00625*
Y-00904*
X01121Y-00905*
X01118Y-00898*
X01111Y-00888*
X01101Y-00881*
X0109Y-00876*
X01078Y-00875*
X01066Y-00876*
X01055Y-00881*
X01046Y-00888*
X01039Y-00897*
X01034Y-00895*
Y-00428*
X01039Y-00426*
X0104Y-00427*
X01049Y-00434*
X01059Y-00438*
X0107Y-00439*
X0108Y-00438*
X01091Y-00434*
X01099Y-00427*
X01106Y-00418*
X0111Y-00408*
X01111Y-00397*
X0111Y-00387*
X01106Y-00377*
X01099Y-00368*
X01097Y-00366*
X01098Y-00361*
X01141*
X01142Y-00366*
X0114Y-00368*
X01133Y-00377*
X01129Y-00387*
X01129Y-00388*
X0121*
X0121Y-00387*
X01206Y-00377*
X01199Y-00368*
X01197Y-00366*
X01198Y-00361*
X01221*
X01227Y-0036*
X01232Y-00357*
X01253Y-00336*
X01259Y-00338*
X0127Y-00339*
X0128Y-00338*
X01291Y-00334*
X01299Y-00327*
X01306Y-00318*
X0131Y-00308*
X01311Y-00297*
X0131Y-00287*
X01306Y-00277*
X01299Y-00268*
X01291Y-00261*
X0128Y-00257*
X0127Y-00256*
X01259Y-00257*
X01249Y-00261*
X0124Y-00268*
X01233Y-00277*
X01229Y-00287*
X01228Y-00297*
X01229Y-00308*
X01231Y-00314*
X01215Y-00331*
X01202*
X012Y-00326*
X01206Y-00318*
X0121Y-00308*
X01211Y-00297*
X0121Y-00287*
X01206Y-00277*
X01199Y-00268*
X01191Y-00261*
X0118Y-00257*
X0117Y-00256*
X01159Y-00257*
X01149Y-00261*
X0114Y-00268*
X01133Y-00277*
X01129Y-00287*
X01128Y-00297*
X01129Y-00308*
X01133Y-00318*
X01139Y-00326*
X01137Y-00331*
X01102*
X011Y-00326*
X01106Y-00318*
X0111Y-00308*
X01111Y-00297*
X0111Y-00287*
X01106Y-00277*
X01099Y-00268*
X01091Y-00261*
X0108Y-00257*
X0107Y-00256*
X01059Y-00257*
X01049Y-00261*
X0104Y-00268*
X01033Y-00277*
X01029Y-00287*
X01028Y-00297*
X01029Y-00308*
X01033Y-00318*
X01039Y-00326*
X01037Y-00331*
X01035*
X01029Y-00332*
X01024Y-00335*
X01008Y-00351*
X01005Y-00356*
X01004Y-00362*
Y-00366*
X01001Y-00367*
X00999Y-00368*
X00991Y-00361*
X0098Y-00357*
X0097Y-00356*
X00959Y-00357*
X00949Y-00361*
X0094Y-00368*
X00933Y-00377*
X00929Y-00387*
X00928Y-00397*
X00929Y-00408*
X00933Y-00418*
X0094Y-00427*
X00949Y-00434*
X00959Y-00438*
X0097Y-00439*
X0098Y-00438*
X00991Y-00434*
X00999Y-00427*
X01001Y-00428*
X01004Y-00429*
Y-00895*
X00999Y-00897*
X00993Y-00888*
X00983Y-00881*
X00972Y-00876*
X0096Y-00875*
X00948Y-00876*
X00937Y-00881*
X00928Y-00888*
X0092Y-00898*
X00916Y-00909*
X00914Y-00921*
X00916Y-00933*
X0092Y-00944*
X00928Y-00953*
X00937Y-0096*
X00948Y-00965*
X0096Y-00967*
X0097Y-00965*
X00972Y-0097*
X00949Y-00993*
X00946Y-00997*
X00944Y-00997*
X00941Y-00997*
X00941Y-00996*
X00933Y-00987*
X00924Y-0098*
X00913Y-00975*
X00901Y-00973*
X00889Y-00975*
X00878Y-0098*
X00869Y-00987*
X00861Y-00996*
X00857Y-01007*
X00855Y-01019*
X00857Y-01031*
X00861Y-01042*
X00869Y-01052*
X00878Y-01059*
X00889Y-01063*
X00901Y-01065*
X00913Y-01063*
X00924Y-01059*
X00933Y-01052*
X0094Y-01043*
X00945Y-01045*
Y-01078*
X00946Y-01084*
X00949Y-01089*
X00978Y-01118*
X00975Y-01125*
X00973Y-01137*
X00975Y-01149*
X0098Y-0116*
X00987Y-0117*
X00996Y-01177*
X01007Y-01182*
X01019Y-01183*
X01031Y-01182*
X01042Y-01177*
X01052Y-0117*
X01059Y-0116*
X01063Y-01149*
X01065Y-01137*
X01063Y-01125*
X01059Y-01114*
X01052Y-01105*
X01042Y-01098*
X01031Y-01093*
X01019Y-01091*
X01007Y-01093*
X01Y-01096*
X00975Y-01072*
Y-01045*
X0098Y-01043*
X00987Y-01052*
X00996Y-01059*
X01007Y-01063*
X01019Y-01065*
X01031Y-01063*
X01042Y-01059*
X01052Y-01052*
X01059Y-01042*
X01062Y-01035*
X01067Y-01036*
Y-01062*
X01068Y-01068*
X01071Y-01073*
X01104Y-01106*
X01098Y-01114*
X01093Y-01125*
X01091Y-01137*
X01093Y-01149*
X01098Y-0116*
X01105Y-0117*
X01114Y-01177*
X01125Y-01182*
X01137Y-01183*
X01149Y-01182*
X0116Y-01177*
X0117Y-0117*
X01176Y-01161*
X01181Y-01163*
Y-01193*
X01173Y-01196*
X01164Y-01203*
X01157Y-01213*
X01152Y-01224*
X01151Y-01236*
X01152Y-01248*
X01157Y-01259*
X01164Y-01268*
X01173Y-01275*
X01184Y-0128*
X01196Y-01282*
X01208Y-0128*
X01219Y-01275*
X01229Y-01268*
X01236Y-01259*
X01241Y-01248*
X01242Y-01236*
X01241Y-01224*
X01236Y-01213*
X01229Y-01203*
X01219Y-01196*
X01212Y-01193*
Y-01163*
X01217Y-01161*
X01223Y-0117*
X01232Y-01177*
X01244Y-01182*
X01255Y-01183*
X01267Y-01182*
X01278Y-01177*
X01288Y-0117*
X01295Y-0116*
X013Y-01149*
X01301Y-01137*
X013Y-01125*
X01295Y-01114*
X01288Y-01105*
X0128Y-01099*
X01281Y-01094*
X01348*
X01349Y-01099*
X01341Y-01105*
X01334Y-01114*
X01329Y-01125*
X01329Y-01127*
X01374*
Y-01137*
X01383*
Y-01183*
X01385Y-01187*
X01359Y-01213*
X01353Y-01212*
X01347Y-01203*
X01337Y-01196*
X01326Y-01191*
X01314Y-0119*
X01303Y-01191*
X01292Y-01196*
X01282Y-01203*
X01275Y-01213*
X0127Y-01224*
X01269Y-01236*
X0127Y-01248*
X01275Y-01259*
X01282Y-01268*
X01292Y-01275*
X01303Y-0128*
X01314Y-01282*
X01326Y-0128*
X01337Y-01275*
X01347Y-01268*
X01354Y-01259*
X01357Y-01251*
X01358*
X01364Y-0125*
X01369Y-01247*
X01382Y-01233*
X01387Y-01235*
X01387Y-01236*
X01388Y-01248*
X01393Y-01259*
X014Y-01268*
X0141Y-01275*
X01421Y-0128*
X01423Y-0128*
Y-01236*
X01433*
Y-01226*
X01477*
X01477Y-01224*
X01472Y-01213*
X01465Y-01203*
X01455Y-01196*
X01444Y-01191*
X01433Y-0119*
X01432Y-0119*
X0143Y-01186*
X01443Y-01172*
X01447Y-01167*
X01448Y-01162*
X01449Y-01162*
X01452Y-01161*
X01453Y-01161*
X01459Y-0117*
X01469Y-01177*
X0148Y-01182*
X01482Y-01182*
Y-01137*
X01492*
Y-01127*
X01536*
X01536Y-01125*
X01531Y-01114*
X01524Y-01105*
X01516Y-01098*
X01516Y-01098*
X01516Y-01094*
X01517Y-01093*
X01521Y-01092*
X01526Y-01089*
X01565Y-0105*
X01567Y-01047*
X01573Y-01046*
X01573Y-01046*
X01577Y-01052*
X01587Y-01059*
X01598Y-01063*
X0161Y-01065*
X01622Y-01063*
X01633Y-01059*
X01642Y-01052*
X01649Y-01042*
X01654Y-01031*
X01656Y-0103*
X01679Y-01007*
X01683Y-0101*
X01682Y-01019*
X01684Y-01031*
X01688Y-01042*
X01695Y-01052*
X01705Y-01059*
X01716Y-01063*
X01728Y-01065*
X0174Y-01063*
X01751Y-01059*
X0176Y-01052*
X01768Y-01042*
X01771Y-01034*
X01799*
X01805Y-01033*
X0181Y-0103*
X02132Y-00707*
X02136Y-00702*
X02137Y-00696*
Y-00431*
X02142Y-00428*
X02149Y-00434*
X02159Y-00438*
X0217Y-00439*
X0218Y-00438*
X02191Y-00434*
X02199Y-00427*
X02206Y-00418*
X0221Y-00408*
X02211Y-00397*
X0221Y-00387*
X02206Y-00377*
X02199Y-00368*
X02191Y-00361*
X0218Y-00357*
X0217Y-00356*
X02159Y-00357*
X02149Y-00361*
X02142Y-00366*
X02137Y-00364*
Y-00352*
X02153Y-00336*
X02159Y-00338*
X0217Y-00339*
X0218Y-00338*
X02191Y-00334*
X02199Y-00327*
X022Y-00326*
X02205Y-00328*
Y-00348*
X02206Y-00354*
X02209Y-00359*
X02231Y-00381*
X02229Y-00387*
X02228Y-00397*
X02229Y-00408*
X02233Y-00418*
X0224Y-00427*
X02249Y-00434*
X02259Y-00438*
X0227Y-00439*
X0228Y-00438*
X02291Y-00434*
X02299Y-00427*
X02306Y-00418*
X0231Y-00408*
X02311Y-00397*
X0231Y-00387*
X02306Y-00377*
X02299Y-00368*
X02291Y-00361*
X0228Y-00357*
X0227Y-00356*
X02259Y-00357*
X02253Y-00359*
X02235Y-00342*
Y-00329*
X02238Y-00328*
X0224Y-00327*
X02249Y-00334*
X02259Y-00338*
X0227Y-00339*
X0228Y-00338*
X02291Y-00334*
X02299Y-00327*
X02306Y-00318*
X0231Y-00308*
X02311Y-00297*
X0231Y-00287*
X02306Y-00277*
X02299Y-00268*
X02291Y-00261*
X0228Y-00257*
X0227Y-00256*
X02259Y-00257*
X02249Y-00261*
X0224Y-00268*
X02238Y-00267*
X02235Y-00266*
Y-00263*
X02234Y-00257*
X02231Y-00252*
X02191Y-00213*
X02186Y-0021*
X02181Y-00209*
G37*
G36*
X0116Y-00407D02*
X01129D01*
X01129Y-00408*
X01133Y-00418*
X0114Y-00427*
X01149Y-00434*
X01159Y-00438*
X0116Y-00438*
Y-00407*
G37*
G36*
X0121D02*
X01179D01*
Y-00438*
X0118Y-00438*
X01191Y-00434*
X01199Y-00427*
X01206Y-00418*
X0121Y-00408*
X0121Y-00407*
G37*
G36*
X0126D02*
X01229D01*
X01229Y-00408*
X01233Y-00418*
X0124Y-00427*
X01249Y-00434*
X01259Y-00438*
X0126Y-00438*
Y-00407*
G37*
G36*
X0067Y-00356D02*
X00659Y-00357D01*
X00649Y-00361*
X0064Y-00368*
X00633Y-00377*
X00629Y-00387*
X00628Y-00397*
X00629Y-00408*
X00633Y-00418*
X0064Y-00427*
X00649Y-00434*
X00659Y-00438*
X0067Y-00439*
X0068Y-00438*
X00691Y-00434*
X00699Y-00427*
X00706Y-00418*
X0071Y-00408*
X00711Y-00397*
X0071Y-00387*
X00706Y-00377*
X00699Y-00368*
X00691Y-00361*
X0068Y-00357*
X0067Y-00356*
G37*
G36*
X0077D02*
X00759Y-00357D01*
X00749Y-00361*
X0074Y-00368*
X00733Y-00377*
X00729Y-00387*
X00728Y-00397*
X00729Y-00408*
X00733Y-00418*
X0074Y-00427*
X00749Y-00434*
X00759Y-00438*
X0077Y-00439*
X0078Y-00438*
X00791Y-00434*
X00799Y-00427*
X00806Y-00418*
X0081Y-00408*
X00811Y-00397*
X0081Y-00387*
X00806Y-00377*
X00799Y-00368*
X00791Y-00361*
X0078Y-00357*
X0077Y-00356*
G37*
G36*
X0087D02*
X00859Y-00357D01*
X00849Y-00361*
X0084Y-00368*
X00833Y-00377*
X00829Y-00387*
X00828Y-00397*
X00829Y-00408*
X00833Y-00418*
X0084Y-00427*
X00849Y-00434*
X00859Y-00438*
X0087Y-00439*
X0088Y-00438*
X00891Y-00434*
X00899Y-00427*
X00906Y-00418*
X0091Y-00408*
X00911Y-00397*
X0091Y-00387*
X00906Y-00377*
X00899Y-00368*
X00891Y-00361*
X0088Y-00357*
X0087Y-00356*
G37*
G36*
X0126Y-00357D02*
X01259Y-00357D01*
X01249Y-00361*
X0124Y-00368*
X01233Y-00377*
X01229Y-00387*
X01229Y-00388*
X0126*
Y-00357*
G37*
G36*
X0151Y-00407D02*
X01479D01*
Y-00438*
X0148Y-00438*
X01491Y-00434*
X01499Y-00427*
X01506Y-00418*
X0151Y-00408*
X0151Y-00407*
G37*
%LNpcb1-3*%
%LPD*%
G36*
X02191Y-00256D02*
X02188Y-0026D01*
X0218Y-00257*
X0217Y-00256*
X02159Y-00257*
X02149Y-00261*
X0214Y-00268*
X02133Y-00277*
X02129Y-00287*
X02128Y-00297*
X02129Y-00308*
X02131Y-00314*
X02111Y-00335*
X02107Y-0034*
X02106Y-00345*
Y-00369*
X02101Y-00371*
X02099Y-00368*
X02091Y-00361*
X0208Y-00357*
X0207Y-00356*
X02059Y-00357*
X02049Y-00361*
X0204Y-00368*
X02039Y-00369*
X02034Y-00367*
Y-00328*
X02039Y-00326*
X0204Y-00327*
X02049Y-00334*
X02059Y-00338*
X0206Y-00338*
Y-00297*
Y-00257*
X02059Y-00257*
X02051Y-0026*
X02048Y-00256*
X02065Y-00239*
X02174*
X02191Y-00256*
G37*
G36*
X01803Y-00511D02*
Y-00521D01*
X01481Y-00843*
X01477Y-00848*
X01476Y-00854*
Y-00895*
X01471Y-00897*
X01465Y-00888*
X01463Y-00886*
Y-0085*
X01791Y-00522*
X01796Y-00516*
X01798Y-0051*
X01803Y-00511*
G37*
G36*
X02106Y-00426D02*
Y-0069D01*
X01792Y-01004*
X01771*
X01768Y-00996*
X0176Y-00987*
X01751Y-0098*
X0174Y-00975*
X01728Y-00973*
X01718Y-00975*
X01716Y-0097*
X01739Y-00947*
X01742Y-00943*
X01744Y-00943*
X01747Y-00943*
X01747Y-00944*
X01755Y-00953*
X01764Y-0096*
X01775Y-00965*
X01787Y-00967*
X01799Y-00965*
X0181Y-0096*
X01819Y-00953*
X01827Y-00944*
X01831Y-00933*
X01833Y-00921*
X01831Y-00909*
X01828Y-00901*
X0208Y-00649*
X02084Y-00644*
X02085Y-00638*
Y-00436*
X02091Y-00434*
X02099Y-00427*
X02101Y-00424*
X02106Y-00426*
G37*
G36*
X0134Y-00427D02*
X01349Y-00434D01*
X01359Y-00438*
X0137Y-00439*
X0138Y-00438*
X01391Y-00434*
X01399Y-00427*
X01401Y-00425*
X01405Y-00427*
Y-00481*
X01186Y-00701*
X01182Y-00706*
X01181Y-00712*
Y-00878*
X01173Y-00881*
X01164Y-00888*
X01162Y-00892*
X01157Y-0089*
Y-00632*
X01329Y-00459*
X01333Y-00454*
X01334Y-00448*
Y-00427*
X01338Y-00425*
X0134Y-00427*
G37*
G36*
X0204D02*
X02049Y-00434D01*
X02054Y-00436*
Y-00632*
X01806Y-0088*
X01799Y-00876*
X01787Y-00875*
X01778Y-00876*
X01775Y-00871*
X0203Y-00617*
X02033Y-00612*
X02034Y-00606*
Y-00428*
X02039Y-00426*
X0204Y-00427*
G37*
%LNpcb1-4*%
%LPC*%
G36*
X0211Y-00307D02*
X02079D01*
Y-00338*
X0208Y-00338*
X02091Y-00334*
X02099Y-00327*
X02106Y-00318*
X0211Y-00308*
X0211Y-00307*
G37*
G36*
X02079Y-00257D02*
Y-00288D01*
X0211*
X0211Y-00287*
X02106Y-00277*
X02099Y-00268*
X02091Y-00261*
X0208Y-00257*
X02079Y-00257*
G37*
%LNpcb1-5*%
%LPD*%
G54D10*
X01433Y-00921D02*
Y-00838D01*
X0177Y-00501*
Y-00397*
X01551Y-00921D02*
Y-00866D01*
X0187Y-00547*
Y-00397*
X0197Y-00585D02*
Y-00397D01*
X01669Y-00885D02*
X0197Y-00585D01*
X01669Y-00921D02*
Y-00885D01*
Y-01236D02*
X01787D01*
X02192*
X02409Y-01019*
G54D11*
X01019Y-00362D02*
X01035Y-00346D01*
X01221D02*
X0127Y-00297D01*
X01019Y-00944D02*
Y-00362D01*
X0096Y-01078D02*
X01019Y-01137D01*
X0096Y-01078D02*
Y-01003D01*
X01019Y-00944*
X0057Y-00297D02*
Y-00205D01*
X00692Y-00082*
X01435*
X01137Y-01137D02*
Y-01118D01*
X01082Y-01062D02*
X01137Y-01118D01*
X01082Y-01062D02*
Y-00992D01*
X01141Y-00933*
X01035Y-00346D02*
X01221D01*
X01141Y-00933D02*
Y-00625D01*
X01318Y-00448*
Y-00349D02*
X0137Y-00297D01*
X01318Y-00448D02*
Y-00349D01*
X01196Y-00921D02*
Y-00712D01*
X01421Y-00488*
Y-00259*
X01452Y-00228*
X016*
X0167Y-00297*
X0177Y-003D02*
Y-00297D01*
X01314Y-00921D02*
Y-00791D01*
X01622Y-00484*
Y-00374*
X01649Y-00346*
X01724*
X0177Y-003*
X01196Y-01236D02*
Y-01106D01*
X01224Y-01078*
X01413*
X01433Y-01059*
Y-01*
X01492Y-0094*
Y-00854*
X01818Y-00527*
Y-00349*
X0187Y-00297*
X01433Y-01106D02*
X0146Y-01078D01*
X01515*
X01555Y-01039*
X0161Y-00877D02*
X01921Y-00566D01*
Y-00346*
X0197Y-00297*
X01555Y-01039D02*
Y-00996D01*
X0161Y-0094*
Y-00877*
X01314Y-01236D02*
X01358D01*
X01433Y-01161*
Y-01106*
X01787Y-00921D02*
X0207Y-00638D01*
Y-00397*
X01728Y-01019D02*
X01799D01*
X02122Y-00696*
Y-00345*
X0217Y-00297*
X0161Y-01019D02*
X01645D01*
X01728Y-00937*
Y-00897*
X02019Y-00606*
Y-00263*
X02059Y-00224*
X02181*
X0222Y-00263*
Y-00348D02*
Y-00263D01*
Y-00348D02*
X0227Y-00397D01*
G54D13*
X01787Y-01236D03*
X01669D03*
X01728Y-01137D03*
X0161D03*
X01728Y-01019D03*
X0161D03*
X01787Y-00921D03*
X01669D03*
X00842Y-01236D03*
X0096D03*
X01078D03*
X01196D03*
X01314D03*
X01433D03*
X01551D03*
X00901Y-01137D03*
X01019D03*
X01137D03*
X01255D03*
X01374D03*
X01492D03*
Y-01019D03*
X01374D03*
X01255D03*
X01137D03*
X01019D03*
X00901D03*
X01551Y-00921D03*
X01433D03*
X01314D03*
X01196D03*
X01078D03*
X0096D03*
X00842D03*
X02409Y-00822D03*
Y-01019D03*
G54D14*
X0227Y-00397D03*
X0217D03*
X0207D03*
X0197D03*
X0187D03*
X0177D03*
X0167D03*
X0157D03*
X0147D03*
X0137D03*
X0127D03*
X0117D03*
X0107D03*
X0097D03*
X0087D03*
X0077D03*
X0067D03*
X0057D03*
X0047D03*
X0037D03*
X0227Y-00297D03*
X0217D03*
X0207D03*
X0197D03*
X0187D03*
X0177D03*
X0167D03*
X0157D03*
X0147D03*
X0137D03*
X0127D03*
X0117D03*
X0107D03*
X0097D03*
X0087D03*
X0077D03*
X0067D03*
X0057D03*
X0047D03*
X0037D03*
G54D15*
X01635Y-00082D03*
X01535D03*
G54D16*
X01435Y-00082D03*
M02*